<?xml version="1.0" encoding="utf-8"?>
<!-- Generator: Adobe Illustrator 27.1.0, SVG Export Plug-In . SVG Version: 6.00 Build 0)  -->
<svg version="1.1" id="Capa_1" xmlns="http://www.w3.org/2000/svg" xmlns:xlink="http://www.w3.org/1999/xlink" x="0px" y="0px"
	 viewBox="0 0 259.6 213.2" style="enable-background:new 0 0 259.6 213.2;" xml:space="preserve">
<style type="text/css">
	.st0{fill:#E6E6E6;}
</style>
<path class="st0" d="M233.6,84.5H245c2.4,0,4.2-1.9,4.2-4.2S247.3,76,245,76h-14l-13.2-43.4l0,0c-4.8-15.5-18.8-25.9-35-25.9H76.2
	c-16.2,0-30.3,10.4-35,25.9L27.9,76H14.6c-2.3,0-4.2,1.9-4.2,4.2s1.9,4.2,4.2,4.2h10.7l-0.2,0.7l-14.6,20.3v87.4
	c0,7.5,6.1,13.6,13.6,13.6h25.1c7.5,0,13.6-6.1,13.6-13.6v-17.3h133.4v17.3c0,7.5,6.1,13.6,13.6,13.6h25.1c7.5,0,13.6-6.1,13.6-13.6
	v-87.4l-14.6-20.3L233.6,84.5L233.6,84.5z M49.3,35.1c3.7-11.9,14.5-19.9,26.9-19.9h106.5c12.4,0,23.2,8,26.9,19.9l14.6,47.8H34.7
	L49.3,35.1L49.3,35.1z M49.1,198H24c-2.8,0-5.1-2.3-5.1-5.1v-17.6h35.2v17.6C54.2,195.7,51.9,198,49.1,198z M234.8,198h-25.1
	c-2.8,0-5.1-2.3-5.1-5.1v-17.6h35.2v17.6C239.9,195.7,237.6,198,234.8,198L234.8,198z M239.9,166.8H19v-58.6l12.1-16.8h196.6
	l12.1,16.8V166.8z"/>
<path class="st0" d="M56.1,142.5H33.8c-2.4,0-4.2,1.9-4.2,4.2s1.9,4.2,4.2,4.2h22.3c2.3,0,4.2-1.9,4.2-4.2S58.4,142.5,56.1,142.5z"
	/>
<path class="st0" d="M206,142.5c-2.4,0-4.2,1.9-4.2,4.2s1.9,4.2,4.2,4.2h22.3c2.4,0,4.2-1.9,4.2-4.2s-1.9-4.2-4.2-4.2H206z"/>
</svg>
