<?xml version="1.0" encoding="UTF-8"?>
<svg id="Capa_1" data-name="Capa 1" xmlns="http://www.w3.org/2000/svg" viewBox="0 0 225.85 276.78">
  <defs>
    <style>
      .cls-1 {
        fill: #e6e6e6;
      }
    </style>
  </defs>
  <path class="cls-1" d="m70.55,80.98h86.56c3.37,0,6.1-2.73,6.1-6.1s-2.73-6.1-6.1-6.1h-86.56c-3.37,0-6.1,2.73-6.1,6.1s2.73,6.1,6.1,6.1Z"/>
  <path class="cls-1" d="m70.55,111.5h86.56c3.37,0,6.1-2.73,6.1-6.1s-2.73-6.1-6.1-6.1h-86.56c-3.37,0-6.1,2.73-6.1,6.1s2.73,6.1,6.1,6.1Z"/>
  <path class="cls-1" d="m70.55,142.01h86.56c3.37,0,6.1-2.73,6.1-6.1s-2.73-6.1-6.1-6.1h-86.56c-3.37,0-6.1,2.73-6.1,6.1s2.73,6.1,6.1,6.1Z"/>
  <path class="cls-1" d="m163.21,166.42c0-3.37-2.73-6.1-6.1-6.1h-86.56c-3.37,0-6.1,2.73-6.1,6.1s2.73,6.1,6.1,6.1h86.56c3.37,0,6.1-2.73,6.1-6.1Z"/>
  <path class="cls-1" d="m203.16,203.65V27.23c0-9.32-7.62-16.94-17-16.94H30.62c-9.38,0-17,7.62-17,16.94v209.29c0,9.38,7.62,17,17,17h114.74c6.93,7.93,17.19,12.97,28.65,12.97,21.09,0,38.22-17.06,38.22-38.16,0-9.44-3.4-18.07-9.07-24.68ZM30.62,247.22c-5.92,0-10.71-4.85-10.71-10.7V27.23c0-5.85,4.79-10.64,10.71-10.64h155.54c5.92,0,10.7,4.79,10.7,10.64v170.57c-6.36-4.85-14.29-7.68-22.85-7.68-21.09,0-38.22,17.06-38.22,38.22,0,6.86,1.83,13.35,5.04,18.89H30.62Zm163.66,4.28h-.06c-5.48,4.66-12.53,7.49-20.21,7.49-6.61,0-12.66-2.01-17.63-5.48-2.52-1.76-4.85-3.84-6.74-6.3-4.16-5.29-6.67-11.96-6.67-19.27,0-17.13,13.85-31.04,31.04-31.04,9,0,17.12,3.84,22.85,10.01,2.77,3.02,4.91,6.55,6.3,10.45,1.26,3.27,1.89,6.86,1.89,10.58,0,3.9-.69,7.62-2.07,11.08-1.83,4.85-4.85,9.13-8.69,12.47Z"/>
  <path class="cls-1" d="m187.79,229.14c-.89-1.08-2.2-2.01-3.92-2.8s-3.95-1.47-6.67-2.04c-.27-.06-.51-.11-.77-.16v-6.28c.09.04.2.07.28.11.9.44,1.49.88,2.24,1.48.94.75,1.64,1.38,2.28,1.82s1.4.66,2.3.66c1.24,0,2.2-.28,2.88-.83.67-.55,1.01-1.26,1.01-2.13,0-.79-.32-1.6-.95-2.43-.63-.83-1.55-1.58-2.76-2.27s-2.72-1.22-4.53-1.63c-.86-.19-1.78-.34-2.74-.44v-5.77c0-1.3-1.05-2.35-2.35-2.35s-2.35,1.05-2.35,2.35v5.65c-2.32.11-4.36.48-6.08,1.15-2.05.8-3.59,1.87-4.64,3.22s-1.57,2.77-1.57,4.28c0,1.69.57,3.12,1.7,4.28,1.14,1.16,2.65,2.1,4.55,2.8,1.61.6,3.64,1.18,6.05,1.73l-.47,6.84c-.85-.02-1.68-.22-2.39-.46-1.48-.5-1.76-.78-2.66-2.12-.45-.7-.92-1.24-1.41-1.63-.49-.39-1.2-.58-2.12-.58-1.05,0-1.92.29-2.6.88s-1.03,1.3-1.03,2.13c0,1.25.54,2.5,1.61,3.74,1.07,1.24,2.73,2.28,4.98,3.11,1.76.65,3.8,1.03,6.1,1.18v5.67c0,1.3,1.05,2.35,2.35,2.35s2.35-1.05,2.35-2.35v-5.71c2.15-.16,4.06-.5,5.7-1.04,2.3-.76,4.04-1.89,5.22-3.37,1.18-1.48,1.77-3.26,1.77-5.35,0-1.38-.44-2.61-1.33-3.69Zm-19.1-7.32c-.77-.51-1.16-1.16-1.16-1.95,0-.87.42-1.83,1.57-2.17s1.62-.21,2.63-.33v5.68c-1.27-.33-2.29-.74-3.05-1.24Zm10.03,14.42c-.77.24-1.79.22-2.75.22l.47-5.78c.99.3,1.79.6,2.39.91,1.17.61,2.11,1.62,1.75,2.9-.38,1.35-.88,1.45-1.86,1.75Z"/>
</svg>