<?xml version="1.0" encoding="utf-8"?>
<!-- Generator: Adobe Illustrator 27.1.0, SVG Export Plug-In . SVG Version: 6.00 Build 0)  -->
<svg version="1.1" id="Capa_1" xmlns="http://www.w3.org/2000/svg" xmlns:xlink="http://www.w3.org/1999/xlink" x="0px" y="0px"
	 viewBox="0 0 166.1 276.8" style="enable-background:new 0 0 166.1 276.8;" xml:space="preserve">
<style type="text/css">
	.st0{fill:#E6E6E6;}
</style>
<path class="st0" d="M150.2,129.1c0-21.2-9.3-40.2-24-53c0.9-3.7,1.4-7.6,1.4-11.6c0-25.9-20.8-46.9-46.3-46.9s-46.3,21-46.3,46.9
	c0,4,0.5,7.9,1.4,11.6c-14.7,12.8-24,31.8-24,53c0,36.7,28,66.8,63.4,69.6v73.5c0,2.4,1.9,4.2,4.2,4.2s4.2-1.9,4.2-4.2v-73.4
	C121,197.2,150.2,166.6,150.2,129.1L150.2,129.1z M84.4,190.4v-47.9l16.3-16.3c1.7-1.7,1.7-4.3,0-6s-4.3-1.7-6,0l-10.3,10.3v-5.3
	c0-2.3-1.9-4.2-4.2-4.2s-4.2,1.9-4.2,4.2v25.4l-11.8-11.8c-1.7-1.7-4.3-1.7-6,0c-1.7,1.7-1.7,4.4,0,6l16.4,16.4
	c0.4,0.4,0.9,0.7,1.4,0.9v28.1C45.2,187.4,21,161,21,129.1c0-17.4,7.1-33.1,18.6-44.3c2.1-2.1,4.4-4,6.8-5.7
	c-1.1-2.8-1.9-5.7-2.4-8.7c-0.3-1.9-0.4-3.9-0.4-5.8c0-21.2,16.9-38.4,37.8-38.4s37.8,17.2,37.8,38.4c0,2-0.2,3.9-0.4,5.9
	c-0.5,3-1.3,5.9-2.4,8.7c2.4,1.7,4.7,3.7,6.8,5.7c11.5,11.2,18.6,26.9,18.6,44.3C141.7,161.9,116.3,188.7,84.4,190.4L84.4,190.4z"/>
</svg>
