<?xml version="1.0" encoding="UTF-8"?>
<svg id="Capa_1" data-name="Capa 1" xmlns="http://www.w3.org/2000/svg" viewBox="0 0 172.57 257.87">
  <defs>
    <style>
      .cls-1 {
        fill: #e6e6e6;
      }
    </style>
  </defs>
  <path class="cls-1" d="m152.03,70.2L89.29,7.46c-1.66-1.66-4.35-1.66-6.01,0l-62.74,62.74c-1.66,1.66-1.66,4.35,0,6.01l61.5,61.5v109.7c0,2.35,1.9,4.25,4.25,4.25s4.25-1.9,4.25-4.25v-109.7l61.5-61.5c1.66-1.66,1.66-4.35,0-6.01Zm-65.75,59.74l-56.73-56.73,56.73-56.73,56.73,56.73-56.73,56.73Z"/>
  <path class="cls-1" d="m100.37,93.33h-28.17c-1.84,0-3.33-1.49-3.33-3.33s1.49-3.33,3.33-3.33h28.17c1.84,0,3.33,1.49,3.33,3.33s-1.49,3.33-3.33,3.33Z"/>
  <path class="cls-1" d="m116.8,78.46h-61.04c-1.84,0-3.33-1.49-3.33-3.33s1.49-3.33,3.33-3.33h61.04c1.84,0,3.33,1.49,3.33,3.33s-1.49,3.33-3.33,3.33Z"/>
</svg>