<?xml version="1.0" encoding="UTF-8"?>
<svg id="Capa_1" data-name="Capa 1" xmlns="http://www.w3.org/2000/svg" viewBox="0 0 225.85 227.74">
  <defs>
    <style>
      .cls-1 {
        fill: #e6e6e6;
      }
    </style>
  </defs>
  <path class="cls-1" d="m144.04,97.41c-2.21,0-4,1.79-4,4,0,17.28,14.06,31.34,31.34,31.34s31.34-14.06,31.34-31.34c0-2.21-1.79-4-4-4h-2.9l-18.93-29.49c.37-1.01.31-2.12-.14-3.07,1.83-.56,3.16-1.41,4.1-2.57,1.07-1.33,1.5-3.04,1.14-4.57-.53-2.29-2.82-3.7-5.11-3.17-1.28.3-2.29,1.15-2.83,2.24-.73.2-2.27.46-5.2.41-3.43-.05-9.46-5.4-14.31-9.69-6.32-5.6-12.29-10.89-18.09-10.89h-18.82c-.21,0-.4.03-.6.06v-18.46c0-2.35-1.9-4.25-4.25-4.25s-4.25,1.9-4.25,4.25v18.44c-.12-.01-.24-.04-.36-.04h-18.82c-5.8,0-11.77,5.29-18.09,10.89-4.85,4.29-10.88,9.64-14.31,9.69-2.92.04-4.47-.22-5.2-.41-.55-1.09-1.55-1.94-2.84-2.24-2.28-.53-4.57.88-5.11,3.17-.36,1.53.07,3.24,1.14,4.57.94,1.17,2.28,2.01,4.1,2.57-.45.95-.51,2.06-.14,3.07l-18.93,29.49h-2.9c-2.21,0-4,1.79-4,4,0,17.28,14.06,31.34,31.34,31.34s31.34-14.06,31.34-31.34c0-2.21-1.79-4-4-4h-2.88l-20.54-29.66c.22-.71.25-1.46.07-2.16,6.15-.81,12.4-6.35,18.46-11.72,4.17-3.69,9.88-8.75,12.45-8.75h18.82c.12,0,.24-.03.36-.04v140.14c0,.11.02.21.03.32-11.98,1.84-21.55,11.41-23.41,23.38h-48.71c-2.35,0-4.25,1.9-4.25,4.25s1.9,4.25,4.25,4.25h152.67c2.35,0,4.25-1.9,4.25-4.25s-1.9-4.25-4.25-4.25h-48.71c-1.86-11.97-11.43-21.54-23.41-23.38,0-.11.03-.21.03-.32V45.05c.2.03.4.06.6.06h18.82c2.57,0,8.28,5.06,12.45,8.75,6.06,5.37,12.32,10.91,18.46,11.72-.17.7-.15,1.45.07,2.16l-20.54,29.66h-2.88Zm-89.58,27.34c-11.44,0-20.97-8.27-22.95-19.15.18.03.37.04.55.04.45,0,.9-.08,1.32-.23h42.35c.41.14.83.23,1.26.23.14,0,.28-.02.42-.03-1.99,10.87-11.52,19.14-22.95,19.14Zm-14.93-27.34l14.27-22.23,15.39,22.23h-29.66Zm131.85,27.34c-11.43,0-20.97-8.27-22.95-19.14.14.02.28.03.42.03.43,0,.85-.09,1.26-.23h42.35c.43.15.87.23,1.32.23.18,0,.37-.01.55-.04-1.98,10.87-11.52,19.15-22.95,19.15Zm.66-49.57l14.27,22.23h-29.66l15.39-22.23Z"/>
</svg>