<?xml version="1.0" encoding="UTF-8"?>
<svg id="Capa_1" data-name="Capa 1" xmlns="http://www.w3.org/2000/svg" viewBox="0 0 82.96 82.4">
  <defs>
    <style>
      .cls-1 {
        fill: #d85b35;
      }
    </style>
  </defs>
  <path class="cls-1" d="m55.88,79.55c-2.82,0-5.62-1.43-7.16-3.79-1.31-1.91-1.74-4.42-1.15-6.64-.47-.35-.95-.74-1.44-1.13-1.35-1.08-2.73-2.17-3.9-2.73-2.09-1.01-4.28-1.84-6.5-2.47-2.46-.67-4.66-1.08-6.73-1.25-1.81-.2-3.7-.25-5.77-.17-1.32,2.23-3.43,3.82-5.83,4.37-1.59.39-3.27.34-4.84-.14-1.31-.39-2.59-1.16-3.6-2.18-.14-.14-.27-.28-.4-.43-2.24-2.49-2.94-6.13-1.7-8.84,1.05-2.3,2.51-3.85,4.33-4.62-.91-2.07-1.16-5.07-.53-6.99.94-3,3.53-5.34,6.6-5.97,3.14-.74,6.66.48,8.75,3.06,1.56,1.83,2.33,4.42,2.08,6.96,1.57,1.26,3.16,2.36,4.72,3.27,1.77,1.09,3.79,2.07,6.2,3.01,2.17.81,4.41,1.43,6.67,1.86,1.62.32,3.36.55,5.48.72.89-2.55,3.61-4.5,6.02-5.33,1.55-.55,3.24-.63,4.88-.23,1.58.38,3.14,1.28,4.25,2.47,2.29,2.37,3.07,6.04,1.96,9.14-.49,1.43-1.46,2.81-2.65,3.78-.29.23-1.01.76-1.96,1.25.38.62.67,1.3.88,2.03.19.75.28,1.53.27,2.32,0,.37-.04.76-.12,1.23l-.12.62c-.05.21-.09.34-.14.51-.94,3.15-3.75,5.63-7.01,6.17-.5.1-1.01.14-1.52.14Zm-30.81-20.66c1.46,0,2.83.07,4.17.22,2.19.18,4.53.62,7.15,1.33,2.37.67,4.68,1.55,6.9,2.62,1.43.67,2.91,1.86,4.35,3,.7.56,1.43,1.14,2.1,1.61.47.33.65.95.43,1.49-.69,1.64-.46,3.7.61,5.25,1.28,1.95,3.88,3.04,6.2,2.59,2.33-.39,4.42-2.22,5.08-4.46.05-.15.07-.25.11-.38l.09-.46c.05-.32.08-.58.08-.82,0-.58-.06-1.14-.19-1.66-.25-.91-.71-1.7-1.33-2.29-.32-.27-.46-.73-.35-1.18.1-.42.42-.77.84-.89,1.36-.41,2.46-1.23,2.77-1.47.84-.68,1.52-1.66,1.87-2.68.81-2.25.24-4.91-1.42-6.62-.8-.86-1.91-1.5-3.05-1.78-1.18-.29-2.38-.23-3.48.16-2.11.73-4.48,2.64-4.65,4.45-.04.45-.32.84-.73,1.01-.27.12-.56.13-.84.05-2.58-.18-4.66-.44-6.55-.82-2.39-.45-4.77-1.11-7.08-1.97-2.56-.99-4.71-2.04-6.59-3.19-1.83-1.07-3.7-2.39-5.55-3.92-.34-.29-.51-.73-.43-1.17.37-2.07-.18-4.19-1.45-5.69-.14-.17-.28-.33-.43-.48-1.55-1.55-3.86-2.24-5.9-1.75-2.2.45-4.12,2.19-4.78,4.32-.52,1.59-.12,4.97.98,6.12.32.33.43.81.28,1.25-.15.44-.53.75-.98.82-1.8.27-3.17,1.48-4.18,3.69-.84,1.85-.31,4.39,1.31,6.19.76.88,1.81,1.56,2.87,1.88,1.16.36,2.38.39,3.56.1,1.92-.45,3.61-1.84,4.55-3.72.2-.4.59-.66,1.04-.68.92-.05,1.8-.07,2.65-.07Z"/>
  <g>
    <path class="cls-1" d="m64.08,45.61c-1.33,0-2.94-.63-4.81-1.37-2.39-.94-5.11-2-7.84-2s-5.38,1.18-7.4,2.14c-2.02.95-3.62,1.7-4.89.89-1.2-.76-1.35-2.55-1.35-4.02,0-8.11,6.6-14.72,14.72-14.72s14.72,6.6,14.72,14.72c0,1.25-.15,3.01-1.43,3.88-.5.34-1.08.49-1.71.49Zm-11.58-17.09c-7.01,0-12.72,5.7-12.72,12.72,0,2.04.4,2.33.42,2.34.35.22,1.86-.49,2.97-1.01,2.09-.98,4.95-2.33,8.25-2.33,3.11,0,6.13,1.19,8.57,2.14,1.95.77,3.98,1.56,4.66,1.09.36-.25.56-1.04.56-2.23,0-7.01-5.71-12.72-12.72-12.72Z"/>
    <path class="cls-1" d="m39.64,28.52c-2.56,0-4.64-2.08-4.64-4.64s2.08-4.64,4.64-4.64,4.64,2.08,4.64,4.64-2.08,4.64-4.64,4.64Zm0-7.29c-1.46,0-2.64,1.19-2.64,2.64s1.19,2.64,2.64,2.64,2.64-1.19,2.64-2.64-1.19-2.64-2.64-2.64Z"/>
    <path class="cls-1" d="m52.61,24.88c-2.5,0-4.54-2.04-4.54-4.54s2.04-4.54,4.54-4.54,4.54,2.04,4.54,4.54-2.04,4.54-4.54,4.54Zm0-7.07c-1.4,0-2.54,1.14-2.54,2.54s1.14,2.54,2.54,2.54,2.54-1.14,2.54-2.54-1.14-2.54-2.54-2.54Z"/>
    <path class="cls-1" d="m63.86,28.52c-2.8,0-5.07-2.28-5.07-5.07s2.28-5.07,5.07-5.07,5.07,2.28,5.07,5.07-2.28,5.07-5.07,5.07Zm0-8.14c-1.69,0-3.07,1.38-3.07,3.07s1.38,3.07,3.07,3.07,3.07-1.38,3.07-3.07-1.38-3.07-3.07-3.07Z"/>
  </g>
</svg>