<?xml version="1.0" encoding="UTF-8"?>
<svg id="Capa_1" data-name="Capa 1" xmlns="http://www.w3.org/2000/svg" viewBox="0 0 400 400">
  <defs>
    <style>
      .cls-1 {
        fill: #fff;
      }
    </style>
  </defs>
  <path class="cls-1" d="m132.99,263.05h136.37c4.7,0,8.52-3.76,8.52-8.41v-67.75h10.81c4.08,0,1.06-5.36-1.06-8.8l-21.68-35.88h-131.64l-18.98,34.84c-1.96,3.29-4.92,9.44,0,9.44l10.5.41-1.36,67.63c-.06,4.69,3.77,8.52,8.52,8.52Zm-14.38-4.88l.93-67.49h-9.71c-4.07,0-6.6-4.41-4.53-7.92l26.85-45.57h136.57l27.48,45.13c2.23,3.66-.41,8.36-4.71,8.36h-8.06v67.62c0,4.94-4.01,8.95-8.96,8.95H127.57c-5,0-9.03-4.08-8.96-9.07Z"/>
  <path class="cls-1" d="m139,206.14c-3.46,0-5.94-1.06-7.77-2.57-1.86-1.54-3.16-3.64-4.06-5.87-.9-2.22-1.35-4.47-1.58-6.19-.11-.85-.17-1.56-.2-2.05-.01-.24-.02-.43-.02-.55,0-.06,0-.11,0-.13,0-.01,0-.02,0-.03,0,0,0,0,0,0,0,0,0,0,0,0h0s0,0-2.03,0q-2.03,0-2.03,0s0,0,0,0c0,0,0,0,0,0,0,0,0,.01,0,.02,0,.01,0,.03,0,.06,0,.05,0,.11,0,.19,0,.16.01.39.03.68.03.57.1,1.39.23,2.35.26,1.93.78,4.53,1.84,7.17,1.06,2.63,2.7,5.38,5.24,7.48,2.58,2.13,5.98,3.5,10.36,3.5v-4.06Zm15.69-17.39q-2.03,0-2.03,0h0s0,0,0,0c0,0,0,0,0,0,0,0,0,.01,0,.03,0,.03,0,.07,0,.13,0,.12-.01.31-.02.55-.03.49-.08,1.19-.2,2.05-.23,1.71-.69,3.97-1.59,6.19-.9,2.23-2.2,4.33-4.07,5.87-1.83,1.51-4.31,2.57-7.78,2.57v4.06c4.38,0,7.78-1.37,10.36-3.5,2.55-2.1,4.19-4.85,5.25-7.48,1.06-2.63,1.59-5.24,1.85-7.17.13-.97.2-1.78.23-2.35.02-.29.03-.52.03-.68,0-.08,0-.14,0-.19,0-.02,0-.04,0-.06,0,0,0-.01,0-.02,0,0,0,0,0,0,0,0,0,0,0,0t-2.03,0Zm.21-2.03h-.21v4.06h.21v-4.06Zm15.67,19.42c-3.46,0-5.94-1.06-7.77-2.57-1.86-1.54-3.16-3.64-4.06-5.87-.9-2.22-1.35-4.47-1.58-6.19-.11-.85-.17-1.56-.2-2.05-.01-.24-.02-.43-.02-.55,0-.06,0-.11,0-.13,0-.01,0-.02,0-.03,0,0,0,0,0,0,0,0,0,0,0,0,0,0,0,0,0,0t-2.03,0q-2.03,0-2.03,0s0,0,0,0h0s0,.02,0,.02c0,.01,0,.03,0,.06,0,.05,0,.11,0,.19,0,.16.01.39.03.68.03.57.1,1.39.23,2.35.26,1.93.78,4.53,1.84,7.17,1.06,2.63,2.7,5.38,5.24,7.48,2.58,2.13,5.98,3.5,10.36,3.5v-4.06Zm15.69-17.39q-2.03,0-2.03,0s0,0,0,0c0,0,0,0,0,0,0,0,0,0,0,0,0,0,0,.01,0,.03,0,.03,0,.07,0,.13,0,.12-.01.31-.02.55-.03.49-.08,1.19-.2,2.05-.23,1.71-.69,3.97-1.59,6.19-.9,2.23-2.2,4.33-4.07,5.87-1.83,1.51-4.31,2.57-7.78,2.57v4.06c4.38,0,7.78-1.37,10.36-3.5,2.55-2.1,4.19-4.85,5.25-7.48,1.06-2.63,1.59-5.24,1.85-7.17.13-.97.2-1.78.23-2.35.02-.29.03-.52.03-.68,0-.08,0-.14,0-.19,0-.02,0-.04,0-.06,0,0,0-.01,0-.02,0,0,0,0,0,0h0s0,0-2.03,0Zm.24-2.03h-.24v4.06h.24v-4.06Zm15.67,19.42c-3.46,0-5.94-1.06-7.77-2.57-1.86-1.54-3.16-3.64-4.06-5.87-.9-2.22-1.35-4.47-1.58-6.19-.11-.85-.17-1.56-.2-2.05-.01-.24-.02-.43-.02-.55,0-.06,0-.11,0-.13,0-.01,0-.02,0-.03,0,0,0,0,0,0,0,0,0,0,0,0h0s0,0-2.03,0q-2.03,0-2.03,0h0s0,0,0,0c0,0,0,.01,0,.02,0,.01,0,.03,0,.06,0,.05,0,.11,0,.19,0,.16.01.39.03.68.03.57.1,1.39.23,2.35.26,1.93.78,4.53,1.84,7.17,1.06,2.63,2.7,5.38,5.24,7.48,2.58,2.13,5.98,3.5,10.36,3.5v-4.06Zm15.69-17.39q-2.03,0-2.03,0h0s0,0,0,0c0,0,0,0,0,0,0,0,0,.01,0,.03,0,.03,0,.07,0,.13,0,.12-.01.31-.02.55-.03.49-.08,1.19-.2,2.05-.23,1.71-.69,3.97-1.59,6.19-.9,2.23-2.2,4.33-4.07,5.87-1.83,1.51-4.31,2.57-7.78,2.57v4.06c4.38,0,7.78-1.37,10.36-3.5,2.55-2.1,4.19-4.85,5.25-7.48,1.06-2.63,1.59-5.24,1.85-7.17.13-.97.2-1.78.23-2.35.02-.29.03-.52.03-.68,0-.08,0-.14,0-.19,0-.02,0-.04,0-.06,0,0,0-.01,0-.02,0,0,0,0,0,0h0s0,0-2.03,0Zm-.08,2.03h.08v-4.06h-.08v4.06Zm15.67,15.36c-3.46,0-5.94-1.06-7.77-2.57-1.86-1.54-3.16-3.64-4.06-5.87-.9-2.22-1.35-4.47-1.58-6.19-.11-.85-.17-1.56-.2-2.05-.01-.24-.02-.43-.02-.55,0-.06,0-.11,0-.13,0-.01,0-.02,0-.03,0,0,0,0,0,0,0,0,0,0,0,0h0s0,0-2.03,0q-2.03,0-2.03,0h0s0,.02,0,.03c0,.01,0,.03,0,.06,0,.05,0,.11,0,.19,0,.16.01.39.03.68.03.57.1,1.39.23,2.35.26,1.93.78,4.53,1.84,7.17,1.06,2.63,2.7,5.38,5.24,7.48,2.58,2.13,5.98,3.5,10.36,3.5v-4.06Zm15.69-17.39q-2.03,0-2.03,0h0s0,0,0,0c0,0,0,0,0,0,0,0,0,.01,0,.03,0,.03,0,.07,0,.13,0,.12-.01.31-.02.55-.03.49-.08,1.19-.2,2.05-.23,1.71-.69,3.97-1.59,6.19-.9,2.23-2.2,4.33-4.07,5.87-1.83,1.51-4.31,2.57-7.78,2.57v4.06c4.38,0,7.78-1.37,10.36-3.5,2.55-2.1,4.19-4.85,5.25-7.48,1.06-2.63,1.59-5.24,1.85-7.17.13-.97.2-1.78.23-2.35.02-.29.03-.52.03-.68,0-.08,0-.14,0-.19,0-.02,0-.04,0-.06,0,0,0-.01,0-.02,0,0,0,0,0,0h0s0,0-2.03,0Zm.09-2.03h-.09v4.06h.09v-4.06Zm15.67,19.42c-3.46,0-5.94-1.06-7.77-2.57-1.86-1.54-3.16-3.64-4.06-5.87-.9-2.22-1.35-4.47-1.58-6.19-.11-.85-.17-1.56-.2-2.05-.01-.24-.02-.43-.02-.55,0-.06,0-.11,0-.13,0-.01,0-.02,0-.03,0,0,0,0,0,0,0,0,0,0,0,0h0s0,0-2.03,0q-2.03,0-2.03,0h0s0,0,0,0c0,0,0,.01,0,.02,0,.01,0,.03,0,.06,0,.05,0,.11,0,.19,0,.16.01.39.03.68.03.57.1,1.39.23,2.35.26,1.93.78,4.53,1.84,7.17,1.06,2.63,2.7,5.38,5.24,7.48,2.58,2.13,5.98,3.5,10.36,3.5v-4.06Zm15.69-17.39q-2.03,0-2.03,0h0s0,0,0,0c0,0,0,0,0,0,0,0,0,.01,0,.03,0,.03,0,.07,0,.13,0,.12-.01.31-.02.55-.03.49-.09,1.19-.2,2.05-.23,1.71-.69,3.97-1.59,6.19-.9,2.23-2.2,4.33-4.07,5.87-1.83,1.51-4.31,2.57-7.78,2.57v4.06c4.38,0,7.78-1.37,10.36-3.5,2.55-2.1,4.19-4.85,5.25-7.48,1.06-2.63,1.59-5.24,1.85-7.17.13-.97.2-1.78.23-2.35.02-.29.03-.52.03-.68,0-.08,0-.14,0-.19,0-.02,0-.04,0-.06,0,0,0-.01,0-.02,0,0,0,0,0,0h0s0,0-2.03,0Zm-155.21,0c0-1.12-.91-2.03-2.03-2.03-1.12,0-2.03.91-2.03,2.03h4.06Zm29.33,0v-2.03h-2.03v2.03h2.03Zm.21,0h2.03s0-2.03,0-2.03h-2.03v2.03Zm31.36,0v-2.03h-2.03v2.03h2.03Zm.24,0h2.03s0-2.03,0-2.03h-2.03v2.03Zm31.36,0h2.03v-2.03h-2.03v2.03Zm-.08,0v-2.03h-2.03v2.03s2.03,0,2.03,0Zm31.36,0v-2.03h-2.03v2.03h2.03Zm.09,0h2.03s0-2.03,0-2.03h-2.03v2.03Zm33.39,0c0-1.12-.91-2.03-2.03-2.03s-2.03.91-2.03,2.03h4.06Z"/>
  <path class="cls-1" d="m233.95,222.07h-63.99v41.53h63.99v-41.53Zm2.97,44.04h-69.93v-46.55h69.93v46.55Z"/>
</svg>