<?xml version="1.0" encoding="UTF-8"?>
<svg id="Capa_1" data-name="Capa 1" xmlns="http://www.w3.org/2000/svg" viewBox="0 0 400 400">
  <defs>
    <style>
      .cls-1 {
        fill: #fff;
      }
    </style>
  </defs>
  <path class="cls-1" d="m117.11,279.59c-.06,4.63,3.49,8.47,7.95,8.47v-1.15c-3.76,0-6.85-3.26-6.8-7.32h-1.14Zm1.03-70.72l-1.03,70.7,1.14.02,1.03-70.7-1.14-.02Zm-9.38.66l9.96-.08v-1.15s-9.97.08-9.97.08v1.15Zm-4.71-9.74c-1.65,1.08-2.75,2.21-3.29,3.35-.55,1.16-.51,2.32.07,3.31.57.97,1.61,1.73,2.96,2.25,1.35.52,3.04.82,4.98.83v-1.15c-1.83-.01-3.37-.29-4.56-.75-1.2-.46-1.99-1.09-2.38-1.76-.38-.65-.43-1.4-.03-2.25.41-.88,1.32-1.87,2.88-2.88l-.62-.96Zm80.97-55.29l-80.98,55.3.65.95,80.98-55.3-.65-.95Zm12.35.4c-3.59-2.99-8.61-3.14-12.36-.39l.68.92c3.33-2.44,7.77-2.31,10.95.35l.73-.88Zm76.99,56.3l-77.02-56.32-.68.92,77.02,56.32.68-.92Zm-4.19,8.49c2.97,0,5.37-.99,6.34-2.66.5-.86.6-1.85.23-2.87-.36-1-1.15-2-2.37-2.94l-.7.91c1.11.86,1.73,1.69,2,2.42.26.71.18,1.36-.14,1.91-.67,1.15-2.54,2.09-5.35,2.09v1.15Zm-10.18,0h10.18v-1.15h-10.18v1.15Zm1.35,68.18l-.78-68.76h-1.14s.78,68.77.78,68.77h1.14Zm-9.54,10.17c5.35,0,9.61-4.61,9.54-10.18h-1.14c.06,5.01-3.75,9.04-8.4,9.04v1.15Zm-126.73,0h126.73v-1.15h-126.73v1.15Zm-4.49,2.27c-4.18,0-7.56-3.41-7.5-7.59h-1.14c-.06,4.8,3.83,8.73,8.65,8.73v-1.15Zm135.24,0H120.57v1.15h135.24v-1.15Zm9.25-9.36c.06,5.15-4.09,9.36-9.25,9.36v1.15c5.79,0,10.47-4.73,10.39-10.52h-1.14Zm-.85-68.08l.85,68.09h1.14s-.85-68.11-.85-68.11h-1.14Zm12.67-.57h-12.1v1.15h12.1v-1.15Zm3.51-10.78c4.67,3.4,2.27,10.78-3.51,10.78v1.15c6.89,0,9.76-8.8,4.19-12.85l-.67.93Zm-82.97-61.31l82.97,61.31.68-.92-82.97-61.31-.68.92Zm-12.1-.37c3.67-2.54,8.58-2.4,12.09.36l.71-.9c-3.91-3.07-9.36-3.23-13.45-.4l.65.94Zm-89.16,61.8l89.16-61.8-.65-.94-89.16,61.8.65.94Zm4.99,10.81c-3.97-.02-6.83-1.83-7.88-4-.52-1.08-.62-2.26-.2-3.42.42-1.16,1.39-2.35,3.06-3.38l-.6-.98c-1.84,1.13-3.01,2.5-3.54,3.96-.53,1.47-.41,2.97.24,4.31,1.29,2.67,4.62,4.63,8.9,4.65v-1.15Zm12.24.16l-12.23-.16v1.14s12.22.16,12.22.16v-1.14Zm-.3,70.13l.88-69.55h-1.14s-.88,69.54-.88,69.54h1.14Zm4.62-3.13h-.57s0,0,0,0h.57Zm1.03-70.7h.57s0-.58,0-.58h-.59s0,.58,0,.58Zm-9.96.08v.57s0,0,0,0v-.57Zm-4.41-8.69l.31.48h.01s-.32-.48-.32-.48Zm80.98-55.3l.32.47h.02s-.34-.47-.34-.47Zm11.66.37l-.37.44h.01s.01.02.01.02l.34-.46Zm77.02,56.32l.35-.45h-.01s-.34.45-.34.45Zm-14.03,7.45v-.57h-.58v.58s.58,0,.58,0Zm.78,68.76h-.57s.57,0,.57,0Zm4.87,3.08h-.57s.57,0,.57,0Zm-.85-68.09v-.57h-.58v.58s.58,0,.58,0Zm15.94-11.82l-.34.46h0s.34-.46.34-.46Zm-82.97-61.31l-.35.45h.01s.34-.45.34-.45Zm-12.77-.38l-.33-.47h0s.33.47.33.47Zm-89.16,61.8l.3.49h.01s.01-.02.01-.02l-.33-.47Zm5.31,11.86v-.57s0,0,0,0v.57Zm12.23.16h.57s0-.57,0-.57h-.57s0,.57,0,.57Zm-.88,69.55h.57s0,0,0,0h-.57Z"/>
  <path class="cls-1" d="m207.69,287.44v-56.49h-41.27v56.49h41.27Zm-43.76,2.62v-61.74h46.26v61.74h-46.26Z"/>
</svg>