<?xml version="1.0" encoding="UTF-8"?>
<svg id="Capa_1" data-name="Capa 1" xmlns="http://www.w3.org/2000/svg" viewBox="0 0 400 400">
  <defs>
    <style>
      .cls-1 {
        fill: #fff;
      }
    </style>
  </defs>
  <path class="cls-1" d="m146.29,246.86c4.22,0,8.19.2,12.06.64,6.34.52,13.11,1.8,20.69,3.85,6.86,1.94,13.54,4.49,19.96,7.59,4.14,1.94,8.42,5.39,12.59,8.69,2.03,1.62,4.14,3.3,6.08,4.67,1.36.96,1.88,2.75,1.24,4.32-2,4.75-1.33,10.72,1.76,15.21,3.7,5.65,11.23,8.81,17.94,7.51,6.74-1.13,12.79-6.43,14.7-12.92.14-.43.2-.72.32-1.1l.26-1.33c.14-.93.23-1.68.23-2.38,0-1.68-.17-3.3-.55-4.81-.72-2.64-2.05-4.93-3.85-6.64-.93-.78-1.33-2.12-1.01-3.42.29-1.22,1.22-2.23,2.43-2.58,3.93-1.19,7.12-3.56,8.01-4.26,2.43-1.97,4.4-4.81,5.41-7.77,2.34-6.52.69-14.23-4.11-19.18-2.31-2.49-5.53-4.35-8.82-5.16-3.41-.84-6.89-.67-10.07.46-6.1,2.12-12.96,7.65-13.45,12.9-.12,1.3-.93,2.43-2.11,2.93-.78.35-1.62.38-2.43.14-7.46-.52-13.48-1.27-18.95-2.38-6.91-1.3-13.8-3.22-20.48-5.71-7.41-2.87-13.63-5.91-19.07-9.24-5.29-3.1-10.7-6.93-16.06-11.36-.98-.84-1.48-2.12-1.24-3.39,1.07-6-.52-12.14-4.2-16.49-.41-.49-.81-.96-1.24-1.39-4.48-4.49-11.17-6.49-17.07-5.07-6.36,1.3-11.92,6.35-13.83,12.52-1.5,4.61-.35,14.4,2.84,17.73.93.96,1.24,2.35.81,3.62-.43,1.27-1.53,2.17-2.84,2.38-5.21.78-9.17,4.29-12.09,10.69-2.43,5.36-.9,12.72,3.79,17.94,2.2,2.55,5.24,4.52,8.3,5.45,3.36,1.04,6.89,1.13,10.3.29,5.55-1.3,10.44-5.33,13.16-10.78.58-1.16,1.71-1.91,3.01-1.97,2.66-.14,5.21-.2,7.67-.2h-.09Zm89.14,59.87c-8.16,0-16.26-4.14-20.72-10.98-3.79-5.53-5.03-12.81-3.33-19.24-1.36-1.01-2.75-2.14-4.17-3.27-3.91-3.13-7.9-6.29-11.28-7.91-6.05-2.93-12.38-5.33-18.81-7.16-7.12-1.94-13.48-3.13-19.47-3.62-5.24-.58-10.7-.72-16.69-.49-3.82,6.46-9.92,11.07-16.87,12.66-4.6,1.13-9.46.99-14-.41-3.79-1.13-7.49-3.36-10.42-6.32-.41-.41-.78-.81-1.16-1.25-6.48-7.22-8.51-17.76-4.92-25.62,3.04-6.67,7.26-11.16,12.53-13.39-2.63-6-3.36-14.69-1.53-20.26,2.72-8.69,10.21-15.47,19.09-17.3,9.08-2.14,19.27,1.39,25.32,8.87,4.51,5.3,6.74,12.81,6.02,20.17,4.54,3.65,9.14,6.84,13.66,9.48,5.12,3.16,10.97,6,17.94,8.72,6.28,2.35,12.76,4.14,19.3,5.39,4.69.93,9.72,1.59,15.85,2.09,2.57-7.39,10.44-13.04,17.42-15.45,4.48-1.59,9.37-1.83,14.12-.67,4.57,1.1,9.08,3.71,12.3,7.16,6.63,6.87,8.88,17.5,5.67,26.49-1.42,4.14-4.22,8.14-7.67,10.95-.84.67-2.92,2.2-5.67,3.62,1.1,1.8,1.94,3.77,2.55,5.88.55,2.17.81,4.43.78,6.72,0,1.07-.12,2.2-.35,3.56l-.35,1.8c-.14.61-.26.99-.41,1.48-2.72,9.13-10.85,16.31-20.28,17.88-1.45.29-2.92.41-4.4.41h-.06Z"/>
  <path class="cls-1" d="m225.65,158.86c-20.28,0-36.8,16.52-36.8,36.86,0,5.91,1.16,6.75,1.22,6.78,1.01.64,5.38-1.42,8.59-2.93,6.05-2.84,14.32-6.75,23.87-6.75,9,0,17.74,3.45,24.79,6.2,5.64,2.23,11.51,4.52,13.48,3.16,1.04-.72,1.62-3.01,1.62-6.46,0-20.31-16.52-36.86-36.8-36.86h.03Zm33.5,49.52c-3.85,0-8.51-1.83-13.92-3.97-6.91-2.72-14.78-5.8-22.68-5.8s-15.57,3.42-21.41,6.2c-5.84,2.75-10.47,4.93-14.15,2.58-3.47-2.2-3.91-7.39-3.91-11.65,0-23.5,19.09-42.66,42.59-42.66s42.59,19.13,42.59,42.66c0,3.62-.43,8.72-4.14,11.24-1.45.99-3.12,1.42-4.95,1.42l-.03-.03Z"/>
  <path class="cls-1" d="m188.44,137.74c-4.22,0-7.64,3.45-7.64,7.65s3.44,7.65,7.64,7.65,7.64-3.45,7.64-7.65-3.44-7.65-7.64-7.65Zm0,21.12c-7.41,0-13.42-6.03-13.42-13.45s6.02-13.45,13.42-13.45,13.42,6.03,13.42,13.45-6.02,13.45-13.42,13.45Z"/>
  <path class="cls-1" d="m225.97,127.82c-4.05,0-7.35,3.3-7.35,7.36s3.3,7.36,7.35,7.36,7.35-3.3,7.35-7.36-3.3-7.36-7.35-7.36Zm0,20.49c-7.23,0-13.13-5.91-13.13-13.16s5.9-13.16,13.13-13.16,13.13,5.91,13.13,13.16-5.9,13.16-13.13,13.16Z"/>
  <path class="cls-1" d="m258.52,135.27c-4.89,0-8.88,4-8.88,8.9s3.99,8.9,8.88,8.9,8.88-4,8.88-8.9-3.99-8.9-8.88-8.9Zm0,23.59c-8.1,0-14.67-6.61-14.67-14.69s6.6-14.69,14.67-14.69,14.67,6.61,14.67,14.69-6.6,14.69-14.67,14.69Z"/>
</svg>