<?xml version="1.0" encoding="UTF-8"?>
<svg id="Capa_1" data-name="Capa 1" xmlns="http://www.w3.org/2000/svg" viewBox="0 0 400 400">
  <defs>
    <style>
      .cls-1 {
        fill: #fff;
      }
    </style>
  </defs>
  <path class="cls-1" d="m318.8,215.29v-90.6c0-9.81-8.22-17.74-18.37-17.74h-158.69c-10.15,0-18.37,7.93-18.37,17.74v90.6c0,9.81,8.22,17.74,18.37,17.74h7.74l12.98,21.78,16.73-21.78h121.27c10.1.05,18.32-7.93,18.32-17.74Zm-13.66,23.51h-123.34l-19.62,26.3-16.4-26.3h-8.17c-10.72,0-19.38-8.61-19.38-19.28v-98.24c0-10.68,8.7-19.28,19.43-19.28h167.53c10.72,0,19.38,8.61,19.38,19.28v98.29c0,10.63-8.7,19.23-19.43,19.23Z"/>
  <path class="cls-1" d="m178.05,127.53c-22.41,0-40.68,18.22-40.68,40.68s18.22,40.68,40.68,40.68,40.68-18.22,40.68-40.68-18.27-40.68-40.68-40.68Zm0,86.6c-25.34,0-45.97-20.63-45.97-45.97s20.63-45.97,45.97-45.97,45.97,20.63,45.97,45.97-20.63,45.97-45.97,45.97Z"/>
  <rect class="cls-1" x="169.29" y="180.72" width="17.5" height="16.35"/>
  <polygon class="cls-1" points="183.38 175.33 172.56 175.33 168.91 136.29 187.13 136.29 183.38 175.33"/>
  <path class="cls-1" d="m306.15,151.58h-71.99c-1.35,0-2.4-1.06-2.4-2.4s1.06-2.4,2.4-2.4h71.99c1.35,0,2.4,1.06,2.4,2.4s-1.11,2.4-2.4,2.4Z"/>
  <path class="cls-1" d="m285.76,163.65h-51.6c-1.35,0-2.4-1.06-2.4-2.4s1.06-2.4,2.4-2.4h51.65c1.35,0,2.4,1.06,2.4,2.4s-1.11,2.4-2.45,2.4Z"/>
  <path class="cls-1" d="m285.76,177.78h-51.6c-1.35,0-2.4-1.06-2.4-2.4s1.06-2.4,2.4-2.4h51.65c1.35,0,2.4,1.06,2.4,2.4s-1.11,2.4-2.45,2.4Z"/>
  <path class="cls-1" d="m306.15,189.57h-71.99c-1.35,0-2.4-1.06-2.4-2.4s1.06-2.4,2.4-2.4h71.99c1.35,0,2.4,1.06,2.4,2.4s-1.11,2.4-2.4,2.4Z"/>
</svg>