<?xml version="1.0" encoding="UTF-8"?>
<svg id="Capa_1" data-name="Capa 1" xmlns="http://www.w3.org/2000/svg" viewBox="0 0 400 400">
  <defs>
    <style>
      .cls-1 {
        fill: #fff;
      }
    </style>
  </defs>
  <path class="cls-1" d="m182.08,236.37l6.25,31.99c.21,1.06,1.08,1.83,2.16,1.85,1.06.1,2.01-.62,2.32-1.65l12.46-42.52,12.95,4.66v-4.89l-13.69-4.94c-.59-.21-1.26-.18-1.83.13-.57.28-1,.8-1.18,1.39l-10.48,35.78-4.3-21.95,5.53-12.23c.31-.69.26-1.54-.18-2.19-.41-.67-1.16-1.06-1.93-1.06h-19.3c-.8,0-1.52.39-1.96,1.06-.41.64-.49,1.49-.15,2.19l5.51,12.23-4.3,21.95-10.48-35.78c-.18-.59-.62-1.11-1.18-1.39-.57-.31-1.21-.33-1.83-.13l-32.3,11.63c-.59.23-1.11.69-1.34,1.31-2.34,5.66-8.85,47.02-9.6,51.71-.1.67.08,1.36.51,1.85.44.51,1.08.82,1.78.82h102.7v-4.63h-99.99c2.7-17.12,6.82-41.13,8.57-47.1l28.93-10.42,12.46,42.52c.31,1.03,1.29,1.75,2.34,1.65,1.06-.03,1.96-.8,2.14-1.85l6.28-31.99c.08-.46,0-.95-.15-1.39l-4.35-9.63h12.15l-4.35,9.63c-.21.44-.26.93-.15,1.39Z"/>
  <path class="cls-1" d="m157.24,187.7c.98,0,1.88.62,2.19,1.57,4.3,12.69,11.38,19.15,21.08,19.15s16.78-6.43,21.08-19.15c.33-1,1.29-1.67,2.37-1.57h.13c1.85,0,3.84-2.83,5.3-7.62,1.06-3.4,1.16-6,.36-7.49-.28-.54-.88-1.31-2.57-1.8-1-.28-1.67-1.18-1.67-2.21v-.28c0-.08,0-.15.03-.23.1-.82,1.34-11.63-.64-17.09-.93-2.57-2.21-3.01-3.11-3.11-.75-.1-1.39-.54-1.75-1.21-3.17-5.89-11.63-7.85-16.16-8.91-8.49-1.96-14.85-1.52-18.48,1.26-2.86,2.19-3.29,5.22-3.35,5.92v.08c0,1.47-1.54,2.6-2.88,2.24-.28-.03-1.49-.18-2.37.46-.69.51-1.16,1.49-1.31,2.91-.69,5.87-.08,15.73,0,17.37,0,.08,0,.15.03.23v.33c0,1.03-.69,1.93-1.67,2.21-1.7.49-2.29,1.26-2.57,1.8-.82,1.49-.69,4.09.36,7.49,1.54,4.97,3.5,7.72,5.43,7.62h.18l.03.03Zm23.27,25.33c-11.32,0-19.92-7.18-24.94-20.82-3.55-.69-6.36-4.3-8.37-10.76-1.47-4.76-1.47-8.36,0-11.04.8-1.47,1.98-2.57,3.58-3.37-.18-3.37-.57-11.56.08-16.94.33-2.78,1.42-4.86,3.27-6.18,1.24-.88,2.55-1.21,3.65-1.31.51-2.01,1.75-4.92,4.71-7.21,4.84-3.76,12.33-4.5,22.26-2.21,5.17,1.21,14.36,3.32,18.79,10.3,2.03.57,4.32,2.08,5.71,5.89,1.93,5.33,1.39,14.08,1.06,17.68,1.54.77,2.73,1.88,3.53,3.32,1.47,2.68,1.47,6.31,0,11.04-2.34,7.62-5.56,10.17-8.34,10.73-5.02,13.64-13.62,20.82-24.94,20.82l-.05.05Z"/>
  <path class="cls-1" d="m227.4,283.7l-.05-27.21,9.63,1.57v8.03c0,.64.51,1.16,1.16,1.16h4.89c.64,0,1.16-.51,1.16-1.16v-6.87l22.44,3.68h.36l22.44-3.68v6.87c0,.64.51,1.16,1.16,1.16h4.89c.64,0,1.16-.51,1.16-1.16v-8.03l10.01-1.65.05,27.28h-79.3Zm30.29-57.45v-5.17h19.12v5.17s.03.23.05.33h-19.23s.05-.21.05-.33Zm37.73,23.47h-4.89c-.64,0-1.16.51-1.16,1.16v3.55l-22.52,3.68-22.73-3.73v-3.53c0-.64-.51-1.16-1.16-1.16h-4.89c-.64,0-1.16.51-1.16,1.16v2.34l-9.63-1.57v-20.57h79.2v20.51l-9.96,1.65v-2.37c0-.64-.51-1.16-1.16-1.16l.05.03Zm14.41-23.14h-28.36v-8.98c0-.64-.51-1.16-1.16-1.16h-26.43c-.64,0-1.16.51-1.16,1.16v8.98h-29.19c-.64,0-1.16.51-1.16,1.16v59.33c0,.64.51,1.16,1.16,1.16h86.3c.64,0,1.16-.51,1.16-1.16v-59.33c0-.64-.51-1.16-1.16-1.16Z"/>
</svg>