<?xml version="1.0" encoding="UTF-8"?>
<svg id="Capa_1" data-name="Capa 1" xmlns="http://www.w3.org/2000/svg" viewBox="0 0 400 400">
  <defs>
    <style>
      .cls-1 {
        fill: #fff;
      }
    </style>
  </defs>
  <path class="cls-1" d="m279.81,269.15c0,4.42-3.62,8.04-8.05,8.04H106.97c-6.59,0-11.98-5.38-11.98-11.96v-76.76c0-3.96,3.22-7.2,7.21-7.2h118.88l15.79-13.23h42.94v101.12Zm-88.76-143.78l15.39,16.76-30.12,19.85-20.19,12.86h-39.84l74.73-49.43.03-.03Zm81.61,36.48h-38.05l-.81.68-12.85,10.67h-50.46l9.19-6.06,65.23-41.52,27.74,36.2v.03Zm7.8,0l-34.09-44.45-34.24,21.79-20.09-21.89-87.37,57.78h-2.48c-7.4,0-13.41,6-13.41,13.39v76.76c0,10.02,8.14,18.15,18.17,18.15h164.79c7.86,0,14.24-6.37,14.24-14.22v-107.3h-5.54Z"/>
</svg>