<?xml version="1.0" encoding="UTF-8"?>
<svg id="Capa_1" data-name="Capa 1" xmlns="http://www.w3.org/2000/svg" viewBox="0 0 82.96 82.4">
  <defs>
    <style>
      .cls-1 {
        fill: #fff;
      }

      .cls-2 {
        stroke-width: 3.15px;
      }

      .cls-2, .cls-3 {
        fill: none;
        stroke: #fff;
        stroke-miterlimit: 10;
      }

      .cls-3 {
        stroke-width: 3px;
      }
    </style>
  </defs>
  <rect class="cls-2" x="8.67" y="16.86" width="65.61" height="53.48" rx="7.2" ry="7.2"/>
  <g>
    <rect class="cls-1" x="24.12" y="12.07" width="5.41" height="8.81" rx="1.66" ry="1.66"/>
    <rect class="cls-1" x="38.77" y="12.07" width="5.41" height="8.81" rx="1.66" ry="1.66"/>
    <rect class="cls-1" x="53.42" y="12.07" width="5.41" height="8.81" rx="1.66" ry="1.66"/>
  </g>
  <g>
    <rect class="cls-1" x="19.49" y="36.84" width="7.06" height="7.06" rx="1.69" ry="1.69"/>
    <rect class="cls-1" x="31.8" y="36.84" width="7.06" height="7.06" rx="1.69" ry="1.69"/>
    <rect class="cls-1" x="44.1" y="36.84" width="7.06" height="7.06" rx="1.69" ry="1.69"/>
    <rect class="cls-1" x="56.41" y="36.84" width="7.06" height="7.06" rx="1.69" ry="1.69"/>
    <rect class="cls-1" x="19.49" y="46.03" width="7.06" height="7.06" rx="1.69" ry="1.69"/>
    <rect class="cls-1" x="31.8" y="46.03" width="7.06" height="7.06" rx="1.69" ry="1.69"/>
    <rect class="cls-1" x="44.1" y="46.03" width="7.06" height="7.06" rx="1.69" ry="1.69"/>
    <rect class="cls-1" x="56.41" y="46.03" width="7.06" height="7.06" rx="1.69" ry="1.69"/>
    <rect class="cls-1" x="19.49" y="55.23" width="7.06" height="7.06" rx="1.69" ry="1.69"/>
    <rect class="cls-1" x="31.8" y="55.23" width="7.06" height="7.06" rx="1.69" ry="1.69"/>
    <rect class="cls-1" x="44.1" y="55.23" width="7.06" height="7.06" rx="1.69" ry="1.69"/>
    <rect class="cls-1" x="56.41" y="55.23" width="7.06" height="7.06" rx="1.69" ry="1.69"/>
  </g>
  <line class="cls-3" x1="8.88" y1="29.46" x2="74.08" y2="29.46"/>
</svg>