<?xml version="1.0" encoding="utf-8"?>
<!-- Generator: Adobe Illustrator 27.1.0, SVG Export Plug-In . SVG Version: 6.00 Build 0)  -->
<svg version="1.1" id="Capa_1" xmlns="http://www.w3.org/2000/svg" xmlns:xlink="http://www.w3.org/1999/xlink" x="0px" y="0px"
	 viewBox="0 0 82 78" style="enable-background:new 0 0 82 78;" xml:space="preserve">
<style type="text/css">
	.st0{fill:#D85B35;}
	.st1{fill:#8A43EF;}
	.st2{fill:#FFC14F;}
	.st3{fill:#FFFFFF;}
	.st4{clip-path:url(#SVGID_00000145760081412008081900000006111724788875831187_);fill:#8A43EF;}
</style>
<g>
	<path class="st1" d="M10.2,40.9c0-4.1,3.4-7.5,7.5-7.5h46c4.1,0,7.5,3.4,7.5,7.5c0,4.1-3.4,7.5-7.5,7.5h-46
		C13.5,48.4,10.2,45.1,10.2,40.9z"/>
	<path class="st3" d="M55.7,43.4c0.2,0,0.5,0,0.6-0.1c0.2-0.1,0.3-0.2,0.5-0.3c0.1-0.1,0.2-0.3,0.3-0.5c0.1-0.2,0.1-0.4,0.1-0.6
		v-0.3c-0.4,0-0.8,0-1.2,0.1c-0.4,0.1-0.7,0.2-0.9,0.3c-0.2,0.2-0.3,0.4-0.3,0.6c0,0.1,0,0.3,0.1,0.4c0.1,0.1,0.2,0.2,0.3,0.3
		C55.3,43.4,55.5,43.4,55.7,43.4z M55.2,44.6c-0.2,0-0.4,0-0.6-0.1c-0.2,0-0.4-0.1-0.7-0.2c-0.2-0.1-0.4-0.3-0.5-0.5
		c-0.1-0.2-0.2-0.6-0.2-0.9c0-0.4,0.1-0.8,0.3-1.1c0.2-0.3,0.5-0.5,0.8-0.7c0.4-0.2,0.8-0.3,1.2-0.3c0.5-0.1,1-0.1,1.6-0.1v-0.5
		c0-0.2,0-0.3-0.1-0.5c-0.1-0.1-0.2-0.3-0.3-0.3c-0.1-0.1-0.4-0.1-0.7-0.1s-0.5,0-0.7,0.1c-0.2,0.1-0.3,0.2-0.3,0.3
		C55,39.6,55,39.7,55,39.8V40h-1.4c0,0,0-0.1,0-0.1c0,0,0-0.1,0-0.1c0-0.4,0.1-0.7,0.3-0.9c0.2-0.3,0.5-0.5,0.9-0.6
		c0.4-0.1,0.8-0.2,1.3-0.2c0.6,0,1,0.1,1.4,0.2c0.4,0.2,0.7,0.4,0.8,0.7c0.2,0.3,0.3,0.7,0.3,1.1v3c0,0.2,0,0.3,0.1,0.3
		c0.1,0.1,0.2,0.1,0.3,0.1h0.4v1c-0.1,0-0.2,0.1-0.3,0.1c-0.2,0-0.3,0.1-0.6,0.1c-0.2,0-0.4,0-0.6-0.1c-0.2-0.1-0.3-0.2-0.4-0.3
		s-0.2-0.3-0.2-0.5h-0.1c-0.1,0.2-0.3,0.3-0.5,0.5c-0.2,0.1-0.4,0.2-0.7,0.3C55.9,44.5,55.6,44.6,55.2,44.6z M49.4,44.4v-6.3h1.2
		l0.1,1h0.1c0.1-0.2,0.2-0.4,0.3-0.6c0.1-0.2,0.3-0.3,0.5-0.4C51.8,38,52,38,52.2,38c0.1,0,0.2,0,0.3,0c0.1,0,0.2,0,0.3,0.1v1.4
		h-0.4c-0.2,0-0.5,0-0.7,0.1c-0.2,0.1-0.4,0.2-0.5,0.3C51.1,40,51,40.2,51,40.4s-0.1,0.5-0.1,0.8v3.3H49.4z M44.4,44.6
		c-0.6,0-1.1-0.2-1.5-0.5c-0.4-0.3-0.6-0.9-0.6-1.7v-4.3h1.5v4c0,0.2,0,0.4,0.1,0.6c0.1,0.1,0.1,0.3,0.2,0.4
		c0.1,0.1,0.2,0.2,0.4,0.2c0.1,0,0.3,0.1,0.5,0.1c0.3,0,0.5-0.1,0.7-0.2c0.2-0.1,0.4-0.3,0.5-0.5c0.1-0.2,0.2-0.5,0.2-0.8v-3.7h1.5
		v6.3h-1.2l-0.1-0.8h-0.1c-0.1,0.2-0.3,0.4-0.5,0.5c-0.2,0.1-0.4,0.3-0.7,0.3C45,44.5,44.7,44.6,44.4,44.6z M40.3,44.6
		c-0.4,0-0.7-0.1-0.9-0.2c-0.2-0.2-0.4-0.4-0.5-0.6c-0.1-0.2-0.1-0.5-0.1-0.8v-3.7H38v-1.2h0.8l0.3-1.8h1.2v1.8h1.1v1.2h-1.1v3.5
		c0,0.2,0,0.3,0.1,0.4c0.1,0.1,0.2,0.1,0.4,0.1h0.6v1c-0.1,0-0.2,0.1-0.3,0.1c-0.1,0-0.2,0.1-0.4,0.1C40.5,44.6,40.4,44.6,40.3,44.6
		z M35.6,44.4v-8.7h1.5v8.7H35.6z M30.6,44.6c-0.6,0-1.1-0.2-1.5-0.5c-0.4-0.3-0.6-0.9-0.6-1.7v-4.3H30v4c0,0.2,0,0.4,0.1,0.6
		c0.1,0.1,0.1,0.3,0.2,0.4c0.1,0.1,0.2,0.2,0.4,0.2c0.1,0,0.3,0.1,0.5,0.1c0.3,0,0.5-0.1,0.7-0.2c0.2-0.1,0.4-0.3,0.5-0.5
		c0.1-0.2,0.2-0.5,0.2-0.8v-3.7H34v6.3h-1.2l-0.1-0.8h-0.1c-0.1,0.2-0.3,0.4-0.5,0.5c-0.2,0.1-0.4,0.3-0.7,0.3
		C31.2,44.5,30.9,44.6,30.6,44.6z M23.7,44.6c-0.8,0-1.6-0.1-2.2-0.4c-0.6-0.3-1-0.8-1.4-1.4c-0.3-0.6-0.5-1.4-0.5-2.4
		c0-1.4,0.4-2.5,1.1-3.2c0.7-0.7,1.7-1,2.9-1c0.7,0,1.3,0.1,1.8,0.3c0.6,0.2,1,0.6,1.3,1.1c0.3,0.5,0.5,1.1,0.5,1.8h-1.6
		c0-0.4-0.1-0.7-0.3-1c-0.2-0.3-0.4-0.5-0.7-0.6c-0.3-0.1-0.7-0.2-1-0.2c-0.5,0-1,0.1-1.4,0.3c-0.4,0.2-0.6,0.5-0.8,0.9
		c-0.2,0.4-0.3,0.9-0.3,1.5v0.3c0,0.6,0.1,1.1,0.3,1.6c0.2,0.4,0.4,0.7,0.8,0.9c0.4,0.2,0.8,0.3,1.4,0.3c0.4,0,0.8-0.1,1.1-0.2
		c0.3-0.1,0.6-0.4,0.7-0.6c0.2-0.3,0.3-0.6,0.3-1h1.5c0,0.7-0.2,1.3-0.5,1.8c-0.3,0.5-0.8,0.8-1.3,1C25,44.5,24.4,44.6,23.7,44.6z"
		/>
</g>
</svg>
