<?xml version="1.0" encoding="utf-8"?>
<!-- Generator: Adobe Illustrator 27.1.0, SVG Export Plug-In . SVG Version: 6.00 Build 0)  -->
<svg version="1.1" id="Capa_1" xmlns="http://www.w3.org/2000/svg" xmlns:xlink="http://www.w3.org/1999/xlink" x="0px" y="0px"
	 viewBox="0 0 82 78" style="enable-background:new 0 0 82 78;" xml:space="preserve">
<style type="text/css">
	.st0{fill:#D85B35;}
	.st1{fill:#8A43EF;}
	.st2{fill:#FFC14F;}
	.st3{fill:#FFFFFF;}
	.st4{clip-path:url(#SVGID_00000035490140978446936770000001491642264204368829_);fill:#8A43EF;}
</style>
<path class="st1" d="M9.4,39.6c0-4.1,3.4-7.5,7.5-7.5h46c4.1,0,7.5,3.4,7.5,7.5c0,4.1-3.4,7.5-7.5,7.5h-46
	C12.7,47.1,9.4,43.7,9.4,39.6z"/>
<path class="st3" d="M58.2,39.3H61c0-0.3,0-0.5-0.1-0.7c-0.1-0.2-0.1-0.3-0.3-0.5c-0.1-0.1-0.2-0.2-0.4-0.3
	c-0.2-0.1-0.3-0.1-0.5-0.1c-0.3,0-0.6,0.1-0.8,0.2c-0.2,0.1-0.4,0.3-0.5,0.5C58.3,38.6,58.3,38.9,58.2,39.3z M59.7,43.2
	c-0.7,0-1.2-0.1-1.7-0.3c-0.4-0.2-0.8-0.6-1-1.1c-0.2-0.5-0.3-1.1-0.3-1.9c0-0.8,0.1-1.4,0.3-1.9c0.2-0.5,0.6-0.8,1-1.1
	c0.4-0.2,1-0.4,1.7-0.4c0.6,0,1.1,0.1,1.5,0.3c0.4,0.2,0.7,0.6,0.9,1s0.3,1.1,0.3,1.8v0.4h-4.3c0,0.4,0.1,0.7,0.2,1
	c0.1,0.3,0.3,0.5,0.5,0.6c0.2,0.1,0.5,0.2,0.9,0.2c0.2,0,0.4,0,0.5-0.1c0.2,0,0.3-0.1,0.4-0.2c0.1-0.1,0.2-0.2,0.3-0.4
	c0.1-0.2,0.1-0.3,0.1-0.5h1.4c0,0.4-0.1,0.7-0.2,1c-0.1,0.3-0.3,0.5-0.6,0.7c-0.2,0.2-0.5,0.3-0.9,0.4
	C60.5,43.2,60.1,43.2,59.7,43.2z M54.9,43.2c-0.4,0-0.7-0.1-0.9-0.2c-0.2-0.2-0.4-0.4-0.5-0.6c-0.1-0.2-0.1-0.5-0.1-0.8V38h-0.8
	v-1.2h0.8l0.3-1.8h1.2v1.8h1.1V38h-1.1v3.5c0,0.2,0,0.3,0.1,0.4C55,42,55.2,42,55.4,42h0.6v1c-0.1,0-0.2,0.1-0.3,0.1
	c-0.1,0-0.2,0.1-0.4,0.1C55.1,43.2,55,43.2,54.9,43.2z M48.9,43.1v-6.3h1.2l0.1,1h0.1c0.1-0.2,0.2-0.4,0.3-0.6
	c0.1-0.2,0.3-0.3,0.5-0.4c0.2-0.1,0.4-0.2,0.7-0.2c0.1,0,0.2,0,0.3,0c0.1,0,0.2,0,0.3,0.1v1.4h-0.4c-0.2,0-0.5,0-0.7,0.1
	c-0.2,0.1-0.4,0.2-0.5,0.3c-0.1,0.1-0.2,0.3-0.3,0.5s-0.1,0.5-0.1,0.8v3.3H48.9z M44.5,42c0.4,0,0.7-0.1,0.9-0.2
	c0.2-0.2,0.4-0.4,0.5-0.7c0.1-0.3,0.2-0.7,0.2-1.1v-0.2c0-0.4-0.1-0.8-0.2-1.1c-0.1-0.3-0.3-0.5-0.5-0.7c-0.2-0.2-0.5-0.2-0.9-0.2
	c-0.4,0-0.7,0.1-0.9,0.2c-0.2,0.1-0.4,0.4-0.5,0.7c-0.1,0.3-0.2,0.7-0.2,1.1V40c0,0.4,0.1,0.8,0.2,1.1c0.1,0.3,0.3,0.5,0.5,0.7
	C43.8,42,44.1,42,44.5,42z M44.5,43.2c-0.7,0-1.3-0.1-1.7-0.3c-0.5-0.2-0.8-0.6-1-1.1c-0.2-0.5-0.3-1.1-0.3-1.9
	c0-0.8,0.1-1.4,0.3-1.9c0.2-0.5,0.6-0.8,1-1.1c0.5-0.2,1-0.4,1.7-0.4c0.7,0,1.3,0.1,1.7,0.4c0.5,0.2,0.8,0.6,1,1.1
	c0.2,0.5,0.3,1.1,0.3,1.9c0,0.8-0.1,1.4-0.3,1.9c-0.2,0.5-0.6,0.9-1,1.1C45.8,43.1,45.2,43.2,44.5,43.2z M37.5,42
	c0.4,0,0.6-0.1,0.9-0.2c0.2-0.1,0.4-0.4,0.5-0.6c0.1-0.3,0.1-0.7,0.1-1.1v-0.2c0-0.4,0-0.8-0.1-1.1c-0.1-0.3-0.2-0.5-0.5-0.6
	c-0.2-0.1-0.5-0.2-0.9-0.2c-0.3,0-0.6,0.1-0.8,0.2c-0.2,0.2-0.4,0.4-0.5,0.7c-0.1,0.3-0.1,0.6-0.1,1.1V40c0,0.3,0,0.6,0.1,0.8
	c0.1,0.2,0.1,0.4,0.3,0.6c0.1,0.2,0.3,0.3,0.4,0.4C37,41.9,37.3,42,37.5,42z M34.6,45.2v-8.4h1.2l0.1,0.8H36
	c0.2-0.3,0.5-0.6,0.8-0.7c0.3-0.2,0.7-0.3,1.1-0.3c0.5,0,1,0.1,1.3,0.3c0.4,0.2,0.7,0.6,0.9,1.1c0.2,0.5,0.3,1.1,0.3,1.9
	c0,0.8-0.1,1.4-0.3,1.9c-0.2,0.5-0.5,0.8-0.9,1.1c-0.4,0.2-0.8,0.3-1.2,0.3c-0.3,0-0.6,0-0.8-0.1s-0.5-0.2-0.6-0.3
	c-0.2-0.1-0.3-0.3-0.5-0.5h-0.1v2.8H34.6z M29.1,39.3h2.7c0-0.3,0-0.5-0.1-0.7c-0.1-0.2-0.1-0.3-0.3-0.5c-0.1-0.1-0.2-0.2-0.4-0.3
	c-0.2-0.1-0.3-0.1-0.5-0.1c-0.3,0-0.6,0.1-0.8,0.2c-0.2,0.1-0.4,0.3-0.5,0.5C29.2,38.6,29.1,38.9,29.1,39.3z M30.6,43.2
	c-0.7,0-1.2-0.1-1.7-0.3c-0.4-0.2-0.8-0.6-1-1.1c-0.2-0.5-0.3-1.1-0.3-1.9c0-0.8,0.1-1.4,0.3-1.9c0.2-0.5,0.6-0.8,1-1.1
	c0.4-0.2,1-0.4,1.7-0.4c0.6,0,1.1,0.1,1.5,0.3c0.4,0.2,0.7,0.6,0.9,1s0.3,1.1,0.3,1.8v0.4h-4.3c0,0.4,0.1,0.7,0.2,1
	c0.1,0.3,0.3,0.5,0.5,0.6c0.2,0.1,0.5,0.2,0.9,0.2c0.2,0,0.4,0,0.5-0.1c0.2,0,0.3-0.1,0.4-0.2c0.1-0.1,0.2-0.2,0.3-0.4
	c0.1-0.2,0.1-0.3,0.1-0.5h1.4c0,0.4-0.1,0.7-0.2,1c-0.1,0.3-0.3,0.5-0.6,0.7c-0.2,0.2-0.5,0.3-0.9,0.4C31.3,43.2,31,43.2,30.6,43.2z
	 M20.8,41.7h1.7c0.4,0,0.7-0.1,1-0.2c0.3-0.1,0.5-0.3,0.7-0.5c0.2-0.2,0.4-0.5,0.5-0.8c0.1-0.3,0.2-0.7,0.2-1.2v-0.3
	c0-0.4-0.1-0.8-0.2-1.2c-0.1-0.3-0.3-0.6-0.5-0.8c-0.2-0.2-0.4-0.4-0.7-0.5s-0.6-0.2-1-0.2h-1.7V41.7z M19.3,43.1v-8.2h3.3
	c0.8,0,1.5,0.1,2.1,0.4c0.6,0.3,1,0.7,1.4,1.4c0.3,0.6,0.5,1.4,0.5,2.3c0,0.9-0.2,1.7-0.5,2.3c-0.3,0.6-0.8,1.1-1.4,1.4
	c-0.6,0.3-1.3,0.4-2.1,0.4H19.3z"/>
</svg>
