<?xml version="1.0" encoding="utf-8"?>
<!-- Generator: Adobe Illustrator 27.1.0, SVG Export Plug-In . SVG Version: 6.00 Build 0)  -->
<svg version="1.1" id="Capa_1" xmlns="http://www.w3.org/2000/svg" xmlns:xlink="http://www.w3.org/1999/xlink" x="0px" y="0px"
	 viewBox="0 0 82 78" style="enable-background:new 0 0 82 78;" xml:space="preserve">
<style type="text/css">
	.st0{fill:#D85B35;}
	.st1{fill:#8A43EF;}
	.st2{fill:#FFC14F;}
	.st3{fill:#FFFFFF;}
	.st4{clip-path:url(#SVGID_00000178905706752480878260000018008398957676523913_);fill:#8A43EF;}
</style>
<g>
	<path class="st1" d="M23.4,26.3c0-1.8,1.4-3.2,3.2-3.2v-1.8c-2.8,0-5,2.2-5,5H23.4z M23.4,48.7V26.3h-1.8v22.4H23.4z M26.7,51.9
		c-1.8,0-3.2-1.4-3.2-3.2h-1.8c0,2.8,2.2,5,5,5V51.9z M56,51.9H26.7v1.8H56V51.9z M59.2,48.7c0,1.8-1.4,3.2-3.2,3.2v1.8
		c2.8,0,5-2.2,5-5H59.2z M59.2,26.3v22.4H61V26.3H59.2z M56,23.1c1.8,0,3.2,1.4,3.2,3.2H61c0-2.8-2.2-5-5-5V23.1z M26.7,23.1H56
		v-1.8H26.7V23.1z"/>
	<path class="st1" d="M33.5,19.4h-1.2c-0.5,0-1,0.4-1,1v3.1c0,0.5,0.4,1,1,1h1.2c0.5,0,1-0.4,1-1v-3.1C34.5,19.9,34,19.4,33.5,19.4z
		"/>
	<path class="st1" d="M41.9,19.4h-1.2c-0.5,0-1,0.4-1,1v3.1c0,0.5,0.4,1,1,1h1.2c0.5,0,1-0.4,1-1v-3.1
		C42.9,19.9,42.4,19.4,41.9,19.4z"/>
	<path class="st1" d="M50.3,19.4h-1.2c-0.5,0-1,0.4-1,1v3.1c0,0.5,0.4,1,1,1h1.2c0.5,0,1-0.4,1-1v-3.1
		C51.3,19.9,50.8,19.4,50.3,19.4z"/>
	<path class="st1" d="M31.8,33.6h-2.1c-0.5,0-1,0.4-1,1v2.1c0,0.5,0.4,1,1,1h2.1c0.5,0,1-0.4,1-1v-2.1
		C32.8,34.1,32.3,33.6,31.8,33.6z"/>
	<path class="st1" d="M38.8,33.6h-2.1c-0.5,0-1,0.4-1,1v2.1c0,0.5,0.4,1,1,1h2.1c0.5,0,1-0.4,1-1v-2.1
		C39.8,34.1,39.4,33.6,38.8,33.6z"/>
	<path class="st1" d="M45.9,33.6h-2.1c-0.5,0-1,0.4-1,1v2.1c0,0.5,0.4,1,1,1h2.1c0.5,0,1-0.4,1-1v-2.1
		C46.9,34.1,46.4,33.6,45.9,33.6z"/>
	<path class="st1" d="M52.9,33.6h-2.1c-0.5,0-1,0.4-1,1v2.1c0,0.5,0.4,1,1,1h2.1c0.5,0,1-0.4,1-1v-2.1
		C53.9,34.1,53.5,33.6,52.9,33.6z"/>
	<path class="st1" d="M31.8,38.9h-2.1c-0.5,0-1,0.4-1,1V42c0,0.5,0.4,1,1,1h2.1c0.5,0,1-0.4,1-1v-2.1C32.8,39.3,32.3,38.9,31.8,38.9
		z"/>
	<path class="st1" d="M38.8,38.9h-2.1c-0.5,0-1,0.4-1,1V42c0,0.5,0.4,1,1,1h2.1c0.5,0,1-0.4,1-1v-2.1C39.8,39.3,39.4,38.9,38.8,38.9
		z"/>
	<path class="st1" d="M45.9,38.9h-2.1c-0.5,0-1,0.4-1,1V42c0,0.5,0.4,1,1,1h2.1c0.5,0,1-0.4,1-1v-2.1C46.9,39.3,46.4,38.9,45.9,38.9
		z"/>
	<path class="st1" d="M52.9,38.9h-2.1c-0.5,0-1,0.4-1,1V42c0,0.5,0.4,1,1,1h2.1c0.5,0,1-0.4,1-1v-2.1C53.9,39.3,53.5,38.9,52.9,38.9
		z"/>
	<path class="st1" d="M31.8,44.2h-2.1c-0.5,0-1,0.4-1,1v2.1c0,0.5,0.4,1,1,1h2.1c0.5,0,1-0.4,1-1v-2.1
		C32.8,44.6,32.3,44.2,31.8,44.2z"/>
	<path class="st1" d="M38.8,44.2h-2.1c-0.5,0-1,0.4-1,1v2.1c0,0.5,0.4,1,1,1h2.1c0.5,0,1-0.4,1-1v-2.1
		C39.8,44.6,39.4,44.2,38.8,44.2z"/>
	<path class="st1" d="M45.9,44.2h-2.1c-0.5,0-1,0.4-1,1v2.1c0,0.5,0.4,1,1,1h2.1c0.5,0,1-0.4,1-1v-2.1
		C46.9,44.6,46.4,44.2,45.9,44.2z"/>
	<path class="st1" d="M52.9,44.2h-2.1c-0.5,0-1,0.4-1,1v2.1c0,0.5,0.4,1,1,1h2.1c0.5,0,1-0.4,1-1v-2.1
		C53.9,44.6,53.5,44.2,52.9,44.2z"/>
	<rect x="22.6" y="28.5" class="st1" width="37.3" height="1.7"/>
</g>
</svg>
