<?xml version="1.0" encoding="utf-8"?>
<!-- Generator: Adobe Illustrator 27.1.0, SVG Export Plug-In . SVG Version: 6.00 Build 0)  -->
<svg version="1.1" id="Capa_1" xmlns="http://www.w3.org/2000/svg" xmlns:xlink="http://www.w3.org/1999/xlink" x="0px" y="0px"
	 viewBox="0 0 929 123.5" style="enable-background:new 0 0 929 123.5;" xml:space="preserve">
<style type="text/css">
	.st0{fill:#D85B35;}
	.st1{fill:#8A43EF;}
	.st2{fill:#FFC14F;}
	.st3{fill:#FFFFFF;}
	.st4{clip-path:url(#SVGID_00000160188935543990939010000003490513229196669073_);fill:#8A43EF;}
</style>
<g>
	<polygon class="st0" points="185.3,25 185.3,95.4 255.6,95.4 	"/>
	<path class="st1" d="M44.5,25h70.4c0,38.9-31.5,70.4-70.4,70.4V25z"/>
	<rect x="114.9" y="25" class="st2" width="70.4" height="70.4"/>
	<rect x="255.6" y="25" class="st2" width="70.4" height="70.4"/>
	<polygon class="st0" points="467.5,25 467.5,95.4 537.9,95.4 	"/>
	<path class="st1" d="M326.7,25h70.4c0,38.9-31.5,70.4-70.4,70.4V25z"/>
	<rect x="397.2" y="25" class="st2" width="70.4" height="70.4"/>
	<rect x="537.9" y="25" class="st2" width="70.4" height="70.4"/>
	<polygon class="st0" points="749.7,25 749.7,95.4 820.1,95.4 	"/>
	<path class="st1" d="M608.4,25h70.4c0,38.9-31.5,70.4-70.4,70.4V25z"/>
	<rect x="679.4" y="25" class="st2" width="70.4" height="70.4"/>
	<rect x="820.1" y="25" class="st2" width="70.4" height="70.4"/>
</g>
</svg>
