<?xml version="1.0" encoding="utf-8"?>
<!-- Generator: Adobe Illustrator 27.1.0, SVG Export Plug-In . SVG Version: 6.00 Build 0)  -->
<svg version="1.1" id="Capa_1" xmlns="http://www.w3.org/2000/svg" xmlns:xlink="http://www.w3.org/1999/xlink" x="0px" y="0px"
	 viewBox="0 0 393 539" style="enable-background:new 0 0 393 539;" xml:space="preserve">
<style type="text/css">
	.st0{fill:#D85B35;}
	.st1{fill:#8A43EF;}
	.st2{fill:#FFC14F;}
	.st3{fill:#FFFFFF;}
	.st4{clip-path:url(#SVGID_00000116923678949552890310000011592003137606657428_);fill:#8A43EF;}
</style>
<path class="st3" d="M43,85c0-22.1,17.9-40,40-40h228c22.1,0,40,17.9,40,40v383c0,22.1-17.9,40-40,40H83c-22.1,0-40-17.9-40-40V85z"
	/>
<g>
	<defs>
		<path id="SVGID_1_" d="M43,85c0-22.1,17.9-40,40-40h228c22.1,0,40,17.9,40,40v383c0,22.1-17.9,40-40,40H83c-22.1,0-40-17.9-40-40
			V85z"/>
	</defs>
	<clipPath id="SVGID_00000007416308761999011700000014535649301390755768_">
		<use xlink:href="#SVGID_1_"  style="overflow:visible;"/>
	</clipPath>
	<path style="clip-path:url(#SVGID_00000007416308761999011700000014535649301390755768_);fill:#8A43EF;" d="M83,42
		c-23.7,0-43,19.3-43,43h6c0-20.4,16.6-37,37-37V42z M311,48c20.4,0,37,16.6,37,37h6c0-23.7-19.3-43-43-43V48z M348,468
		c0,20.4-16.6,37-37,37v6c23.7,0,43-19.3,43-43H348z M83,505c-20.4,0-37-16.6-37-37h-6c0,23.7,19.3,43,43,43V505z M46,468V85h-6v383
		H46z M311,505H83v6h228V505z M348,85v383h6V85H348z M83,48h228v-6H83V48z"/>
</g>
</svg>
