<?xml version="1.0" encoding="UTF-8"?>
<svg id="Capa_1" data-name="Capa 1" xmlns="http://www.w3.org/2000/svg" viewBox="0 0 400 400">
  <defs>
    <style>
      .cls-1 {
        fill: #fff;
      }
    </style>
  </defs>
  <path class="cls-1" d="m97.45,124.82l98.6-.09-1.77,33.47,35.86-4.64v113.24c0,3.5,1.17,6.77,3.2,9.43H103.7c-3.38,0-6.23-4.43-6.23-9.7V124.82h-.03Zm103.96,7.45l20.29,17.18-21.28,2.75.99-19.91v-.03Zm34.21,106.99h19.79v-48.55c0-2.72,1.71-5.09,3.65-5.09h5.18c1.95,0,3.65,2.39,3.65,5.09v74.72c0,5.09-4.91,9.22-10.96,9.22h-10.36c-6.05,0-10.96-4.13-10.96-9.22v-26.16Zm0-53.85h15.68c-.63,1.5-.96,3.14-.96,4.85v44.78h-14.73v-49.63Zm-130.66,96.06h150.56c9.19,0,16.7-6.92,17-15.51v-75.26c0-6.56-4.58-11.91-10.24-11.91h-26.7v-25.15l-39.84-34.19-103.75.12v145.63c0,9.13,5.69,16.31,12.93,16.31l.03-.06Z"/>
  <rect class="cls-1" x="111.4" y="246" width="104.31" height="7.51"/>
  <rect class="cls-1" x="111.4" y="227.56" width="104.31" height="7.51"/>
  <rect class="cls-1" x="111.4" y="209.09" width="104.31" height="7.51"/>
  <rect class="cls-1" x="111.4" y="190.65" width="104.31" height="7.51"/>
  <rect class="cls-1" x="111.4" y="172.18" width="104.31" height="7.51"/>
</svg>