<?xml version="1.0" encoding="UTF-8"?>
<svg id="Capa_1" data-name="Capa 1" xmlns="http://www.w3.org/2000/svg" viewBox="0 0 400 400">
  <defs>
    <style>
      .cls-1 {
        fill: #fff;
      }
    </style>
  </defs>
  <path class="cls-1" d="m77.81,190.97l-26.04,58.29c-2.95,6.61-2.59,13.97,1.04,20.26,4.06,7.01,11.31,11.23,19.39,11.23h203.17l15.25-34.16H103.65c-3.98,0-7.68-1.99-9.87-5.33-2.19-3.34-2.51-7.52-.92-11.19l4.7-10.67h205.16l12.7-28.43H77.81Zm202.25,97.03H72.19c-10.71,0-20.31-5.57-25.68-14.85-4.78-8.32-5.3-18.07-1.35-26.83l27.95-62.59h253.53l-19.19,42.96H102.33l-2.79,6.33c-.64,1.43-.48,2.99.36,4.26.84,1.31,2.23,2.03,3.78,2.03h198.15l-21.74,48.69h-.04Z"/>
  <path class="cls-1" d="m87.6,170.51h237.45l16.44-34.2h-196.4c-23.93,0-46.14,13.34-57.53,34.2h.04Zm241.99,7.29H75.94l3.62-7.52c12.02-25.04,37.74-41.25,65.53-41.25h207.91l-23.41,48.77Z"/>
</svg>