<?xml version="1.0" encoding="UTF-8"?>
<svg id="Capa_1" data-name="Capa 1" xmlns="http://www.w3.org/2000/svg" viewBox="0 0 51.65 64.17">
  <defs>
    <style>
      .cls-1 {
        fill: #fff;
      }
    </style>
  </defs>
  <path class="cls-1" d="m8.04,25.46c-1.29,0-2.33,1.03-2.33,2.32v11.24c0,1.28,1.04,2.33,2.33,2.33s2.32-1.05,2.32-2.33v-11.24c0-1.28-1.04-2.32-2.32-2.32Z"/>
  <path class="cls-1" d="m44.52,25.46c-1.28,0-2.32,1.03-2.32,2.32v11.24c0,1.28,1.04,2.33,2.32,2.33s2.33-1.05,2.33-2.33v-11.24c0-1.28-1.05-2.32-2.33-2.32Z"/>
  <path class="cls-1" d="m12.45,25.46v20.83c0,1.93,1.56,3.48,3.48,3.48h3.73v5.91c0,1.28,1.04,2.33,2.33,2.33s2.33-1.05,2.33-2.33v-5.91h3.97v5.91c0,1.28,1.04,2.33,2.32,2.33s2.33-1.05,2.33-2.33v-5.91h3.73c1.93,0,3.49-1.56,3.49-3.48v-20.74s0-.05-.01-.08H12.45Z"/>
  <path class="cls-1" d="m33.16,17.93c-.72,0-1.3-.59-1.3-1.31s.58-1.32,1.3-1.32,1.31.59,1.31,1.32c0,.71-.58,1.31-1.31,1.31Zm-13.94,0c-.72,0-1.31-.59-1.31-1.31s.59-1.32,1.31-1.32,1.31.59,1.31,1.32c0,.71-.59,1.31-1.31,1.31Zm13.85-6.59l2.49-4.63-.51-.28-2.49,4.63c-1.88-.96-4-1.5-6.25-1.5-2.14,0-4.16.49-5.95,1.36l-2.42-4.49-.52.28,2.41,4.47c-4.3,2.32-7.23,6.83-7.27,12.05h27.51c-.04-5.1-2.85-9.54-6.99-11.89Z"/>
</svg>