<?xml version="1.0" encoding="UTF-8"?>
<svg id="Capa_1" data-name="Capa 1" xmlns="http://www.w3.org/2000/svg" viewBox="0 0 51.65 64.17">
  <defs>
    <style>
      .cls-1 {
        fill: #fdfdfd;
        fill-rule: evenodd;
      }
    </style>
  </defs>
  <path class="cls-1" d="m18.08,19.93c1.54-.02,2.91.39,4.27.88.83.3,1.65.61,2.5.84,1.53.38,3.01.25,4.48-.34,1.04-.41,2.09-.84,3.18-1.1,3.29-.78,6.25-.01,8.9,2.08.73.56,1.39,1.21,1.97,1.94.24.28.23.34-.08.54-2.75,1.72-4.35,4.24-4.63,7.54-.27,3.08.65,5.78,2.73,8.03.9.98,1.97,1.71,3.17,2.24.34.14.35.19.21.53-1.35,3.2-3.13,6.15-5.35,8.79-.76.89-1.63,1.7-2.66,2.28-1.61.92-3.27.93-4.95.2-.69-.3-1.36-.67-2.07-.91-2.32-.76-4.6-.66-6.84.3-.59.26-1.17.53-1.76.76-2.17.83-4.12.32-5.89-1.13-1.09-.88-1.97-1.94-2.79-3.08-1.88-2.61-3.36-5.45-4.36-8.53-.72-2.2-1.17-4.46-1.29-6.79-.14-2.55.06-5.07,1.05-7.44,1.56-3.7,4.21-6.21,8.01-7.35.73-.22,1.49-.31,2.21-.28Z"/>
  <path class="cls-1" d="m34.32,10.27c-.01,2.19-.68,4.03-1.76,5.71-1.23,1.89-2.9,3.21-5.02,3.92-.65.21-1.31.33-1.99.33-.27,0-.37-.11-.39-.38-.18-1.59.17-3.08.83-4.49,1.29-2.81,3.43-4.64,6.23-5.69.57-.2,1.15-.31,1.74-.4.25-.05.3.12.32.31.02.27.06.57.04.71Z"/>
</svg>