<svg width="97" height="96" viewBox="0 0 97 96" fill="none" xmlns="http://www.w3.org/2000/svg">
<path d="M25.0212 23.6504L25.0212 47.9861H49.6997L25.0212 23.6504Z" fill="#FFC14F"/>
<rect x="24.6787" y="72.3213" width="24.6785" height="24.3357" transform="rotate(180 24.6787 72.3213)" fill="#D85B35"/>
<rect x="49" y="96" width="49" height="25" transform="rotate(180 49 96)" fill="#FFC14F"/>
<rect x="25.0212" y="23.6504" width="23.9929" height="23.6502" transform="rotate(180 25.0212 23.6504)" fill="#4B0984"/>
<rect x="73.0073" y="71.9785" width="23.9929" height="23.6502" transform="rotate(180 73.0073 71.9785)" fill="#8A43EF"/>
<path d="M73.0073 71.6357H85.3465C91.7827 71.6357 97.0003 66.4182 97.0003 59.982C97.0003 53.5459 91.7827 48.3283 85.3466 48.3283H73.0073V71.6357Z" fill="#8A43EF"/>
<rect x="73.0073" y="94.9434" width="23.9929" height="23.6375" transform="rotate(180 73.0073 94.9434)" fill="#D85B35"/>
</svg>
