<?xml version="1.0" encoding="UTF-8"?>
<svg id="Capa_1" data-name="Capa 1" xmlns="http://www.w3.org/2000/svg" viewBox="0 0 32.87 26.51">
  <defs>
    <style>
      .cls-1 {
        fill: #fff;
      }

      .cls-2 {
        fill: #ffc14f;
      }
    </style>
  </defs>
  <path class="cls-2" d="m1.64,13.24C1.64,7.21,6.53,2.32,12.56,2.32h7.52c6.03,0,10.92,4.89,10.92,10.92s-4.89,10.92-10.92,10.92h-7.52c-6.03,0-10.92-4.89-10.92-10.92Z"/>
  <path class="cls-1" d="m22.4,12.53h-13.6v1.79h13.6v-1.79Zm-14.24.26c-.35.35-.35.92,0,1.27l5.7,5.7c.35.35.92.35,1.27,0,.35-.35.35-.92,0-1.27l-5.06-5.06,5.06-5.06c.35-.35.35-.92,0-1.27-.35-.35-.92-.35-1.27,0l-5.7,5.7Z"/>
</svg>