<?xml version="1.0" encoding="UTF-8"?>
<svg id="Capa_1" data-name="Capa 1" xmlns="http://www.w3.org/2000/svg" viewBox="0 0 270.36 227.74">
  <defs>
    <style>
      .cls-1 {
        fill: #e6e6e6;
      }
    </style>
  </defs>
  <path class="cls-1" d="m61.32,187.33h67.82v-51.24H61.32v51.24Zm7.73-43.51h52.36v35.78h-52.36v-35.78Z"/>
  <path class="cls-1" d="m241.72,17.92H36.9l-24.2,60.91v.74c0,11.26,5.85,21.18,14.67,26.88v103.35h214.16v-102.47c9.62-5.53,16.13-15.9,16.13-27.77v-.5l-15.93-61.16Zm-72.53,184.16v-75.62h38.91v75.62h-38.91Zm64.61,0h-17.97v-83.35h-54.36v83.35H35.1v-91.98c3.03.96,6.26,1.48,9.61,1.48,8.47,0,16.64-3.46,22.62-9.45,5.98,5.98,14.14,9.45,22.62,9.45s16.64-3.46,22.62-9.45c5.98,5.98,14.14,9.45,22.62,9.45s16.64-3.46,22.62-9.45c5.98,5.98,14.14,9.45,22.62,9.45s16.64-3.46,22.62-9.45c5.98,5.98,14.14,9.45,22.62,9.45,2.82,0,5.55-.37,8.15-1.06v91.56Zm-8.15-98.23c-7.62,0-14.91-3.71-19.51-9.92l-3.1-4.19-3.1,4.19c-4.6,6.21-11.9,9.92-19.51,9.92s-14.91-3.71-19.51-9.92l-3.1-4.19-3.1,4.19c-4.6,6.21-11.9,9.92-19.51,9.92s-14.91-3.71-19.51-9.92l-3.1-4.19-3.1,4.19c-4.6,6.21-11.9,9.92-19.51,9.92s-14.91-3.71-19.51-9.92l-3.1-4.19-3.1,4.19c-4.6,6.21-11.9,9.92-19.51,9.92-13.15,0-23.89-10.51-24.27-23.57l21.71-54.64h193.6l14.17,54.4c-.25,13.17-11.05,23.8-24.27,23.8Z"/>
</svg>