<?xml version="1.0" encoding="UTF-8"?>
<svg id="Capa_1" data-name="Capa 1" xmlns="http://www.w3.org/2000/svg" viewBox="0 0 47.52 47.59">
  <defs>
    <style>
      .cls-1 {
        fill: #fff;
      }
    </style>
  </defs>
  <path class="cls-1" d="m45.34,23.72c-.02-11.77-9.62-21.54-21.66-21.49-11.92.05-21.31,9.65-21.49,21.14-.2,12.5,9.77,21.72,20.99,21.99,12.47.3,22.21-9.72,22.16-21.64Zm2.17.07c.05,13.22-10.62,23.77-23.76,23.79C10.89,47.59-.48,37.06.02,22.77.44,10.67,10.39-.05,23.9,0c12.97.05,23.69,10.62,23.61,23.79Z"/>
  <path class="cls-1" d="m25.95,28.72v3.92c0,.35.07.67-.25.9-.37.25-1.45,0-1.9,0-.67,0-1.95.32-2.22-.32-.15-.35,0-1.15,0-1.52v-5.8c0-.45.17-1.32,0-1.75-.15-.37-.15-.25-.55-.32-1.37-.25-1.55.37-1.55-1.25,0-.4-.17-1.32,0-1.72.17-.42.57-.3,1.02-.3.32,0,.85.15,1.05-.15.22-.3.03-1.25.03-1.6,0-1,.07-2.05.57-2.92.95-1.67,2.95-1.82,4.67-1.85.7,0,2.1-.35,2.35.4.17.52,0,1.4,0,1.95,0,.72.15.85-.5.97-.72.15-1.87-.3-2.47.3-.37.4-.52,2.45-.17,2.8.65.65,2.67-.52,3.12.35.17.35-.15,1.5-.2,1.87-.05.45.02.9-.4,1.12-.87.47-2.5-.72-2.6.67-.12,1.37,0,2.85,0,4.22v.02Z"/>
</svg>