<?xml version="1.0" encoding="UTF-8"?>
<svg id="Capa_1" data-name="Capa 1" xmlns="http://www.w3.org/2000/svg" viewBox="0 0 47.52 47.59">
  <defs>
    <style>
      .cls-1 {
        fill: #fff;
      }
    </style>
  </defs>
  <path class="cls-1" d="m45.34,23.72c-.03-11.77-9.62-21.54-21.66-21.49-11.92.05-21.31,9.65-21.49,21.14-.2,12.5,9.77,21.72,20.99,21.99,12.47.3,22.21-9.72,22.16-21.64Zm2.17.07c.05,13.22-10.62,23.77-23.76,23.79C10.89,47.59-.48,37.06.02,22.77.44,10.67,10.39-.05,23.9,0c12.97.05,23.69,10.62,23.61,23.79Z"/>
  <path class="cls-1" d="m21.33,26.97c1.85-1.07,3.6-2.1,5.45-3.15-1.85-1.07-3.62-2.1-5.45-3.15v6.3Zm10.67-3.15v3.55c0,.9-.9,1.75-1.8,1.85-1.52.17-3.07.22-4.6.25-1.35,0-2.7.05-4.05,0h-1.32c-.82,0-1.65-.1-2.47-.2-.42-.05-.87-.07-1.25-.32-.62-.42-.95-1-.95-1.77v-6.7c0-1.07.9-1.97,1.97-2,.75-.02,1.47-.12,2.2-.2.1,0,.2,0,.27-.02,1.52,0,3.02-.05,4.55-.02,1.52,0,3.07,0,4.6.17.65.07,1.32,0,1.9.4.57.37.92.9.95,1.6v3.5-.07Z"/>
</svg>