<?xml version="1.0" encoding="UTF-8"?>
<svg id="Capa_1" data-name="Capa 1" xmlns="http://www.w3.org/2000/svg" viewBox="0 0 82.96 82.4">
  <defs>
    <style>
      .cls-1 {
        fill: #d85b35;
      }
    </style>
  </defs>
  <path class="cls-1" d="m79.13,28.6l-11.01-14.38-11.06,7.05-6.49-7.08-28.22,18.69h-.8c-2.39,0-4.33,1.94-4.33,4.33v24.83c0,3.24,2.63,5.87,5.87,5.87h53.23c2.54,0,4.6-2.06,4.6-4.6V28.6h-1.79Zm-2.52,0h-12.29l-.26.22-4.15,3.45h-16.3l2.97-1.96,21.07-13.43,8.96,11.71Zm-26.36-11.8l4.97,5.42-9.73,6.42-6.52,4.16h-12.87l24.14-15.99Zm28.67,46.51c0,1.43-1.17,2.6-2.6,2.6H23.09c-2.13,0-3.87-1.74-3.87-3.87v-24.83c0-1.28,1.04-2.33,2.33-2.33h38.4l5.1-4.28h13.87v32.71Z"/>
</svg>