<?xml version="1.0" encoding="UTF-8"?>
<svg id="Capa_1" data-name="Capa 1" xmlns="http://www.w3.org/2000/svg" viewBox="0 0 82.96 82.4">
  <defs>
    <style>
      .cls-1 {
        fill: #fff;
      }
    </style>
  </defs>
  <g>
    <path class="cls-1" d="m64.26,49.39h-16.06c-2.1,0-3.81-1.71-3.81-3.81v-10.15l-7.34-4.04,7.36-4.05c.17-1.94,1.81-3.47,3.79-3.47h16.06c2.1,0,3.81,1.71,3.81,3.81v17.9c0,2.1-1.71,3.81-3.81,3.81Zm-24.87-18l6.13,3.38v10.82c0,1.48,1.2,2.68,2.68,2.68h16.06c1.48,0,2.68-1.2,2.68-2.68v-17.9c0-1.48-1.2-2.68-2.68-2.68h-16.06c-1.48,0-2.68,1.2-2.68,2.68v.33l-6.13,3.38Z"/>
    <path class="cls-1" d="m55.59,43.6c-.48,0-.77-.19-.93-.36-.16-.16-.36-.45-.36-.92s.2-.77.36-.93.46-.36.93-.36.78.19.95.35c.17.16.37.46.37.94,0,.37-.13.69-.38.93-.16.16-.46.35-.95.35Zm1.01-3.54h-2.06v-.81l-.08-3.14.43-.11c.28-.07.58-.16.89-.26.27-.09.52-.21.75-.35.2-.13.36-.28.48-.48.1-.16.16-.38.16-.65s-.04-.48-.12-.64c-.08-.16-.18-.29-.3-.38-.13-.1-.28-.17-.46-.21-.53-.13-1.08-.08-1.58,0-.32.06-.64.13-.96.22l-.62.18-.31-2.11.47-.14c.38-.11.78-.2,1.21-.28.86-.15,1.81-.17,2.65.05.44.12.84.31,1.18.58.35.27.63.63.83,1.07.2.43.3.95.3,1.54s-.11,1.07-.32,1.49c-.21.41-.47.76-.8,1.04-.31.28-.67.5-1.06.67-.22.09-.45.18-.67.25l-.02,2.45Z"/>
  </g>
  <g>
    <path class="cls-1" d="m24.89,55.66c-.79,0-1.44.65-1.44,1.44s.65,1.44,1.44,1.44,1.44-.65,1.44-1.44-.65-1.44-1.44-1.44Zm0,1.78c-.19,0-.34-.15-.34-.34s.15-.34.34-.34.34.15.34.34-.15.34-.34.34Z"/>
    <path class="cls-1" d="m35.11,56.34h-3.94c-.3,0-.55.25-.55.55s.25.55.55.55h3.94c.3,0,.55-.25.55-.55s-.25-.55-.55-.55Z"/>
    <path class="cls-1" d="m39.37,50.6c-1.63-1.3-3.57-2.03-5.25-2.57l-.27-.08c-.5-.16-.98-.32-1.43-.51,2.37-2.46,3.73-5.91,3.73-9.62,0-.69-.11-1.34-.3-1.93.18-.18.31-.43.34-.71l.16-1.84c.03-.3-.07-.6-.26-.83-.19-.23-.47-.37-.77-.4h-.03s0,0,0,0c.03-.3-.07-.6-.26-.84-.19-.23-.47-.37-.76-.39-.63-4.8-4.56-8.37-9.33-8.37s-8.69,3.57-9.33,8.37h-.05c-.3.03-.58.17-.78.4-.2.24-.29.53-.26.83h0s-.03.01-.03.01c-.62.05-1.08.6-1.03,1.23l.16,1.84c.02.25.14.46.29.64-.19.6-.31,1.27-.31,2,0,3.71,1.35,7.16,3.71,9.61-.46.2-.94.36-1.37.5l-.28.09c-1.65.56-3.55,1.26-5.13,2.46-2.63,2-4.11,5.25-4.05,8.92,0,.3.25.54.55.54h35.69c.3,0,.54-.24.55-.54.06-3.56-1.35-6.77-3.89-8.79Zm-7.93-3.71c-.06-.05-.12-.1-.17-.15-.08-.07-.17-.14-.24-.22-.06-.07-.11-.15-.16-.22-.05-.07-.11-.14-.15-.21-.06-.11-.11-.22-.16-.34-.02-.05-.05-.1-.07-.15-.06-.16-.11-.34-.15-.51,0,0,0-.01,0-.02-.16-.74-.16-1.57-.16-2.39h0v-.13c0-.2,0-.4,0-.59.11-.14.23-.29.34-.45.64-.85,1.16-1.81,1.57-2.85.04-.09.06-.18.09-.27.31-.38.59-.78.84-1.2l.68.06s.09,0,.1,0c.51,0,.93-.35,1.06-.82.12.44.19.9.19,1.39,0,3.52-1.32,6.82-3.61,9.08Zm-13.45-11.08v-.03s-.27-3.09-.27-3.09l8.33-2.96,1.24,1.76c.09.13.24.22.4.23.17.02.32-.04.44-.16l.99-1,2.84,1.82c-.05,1.39-.13,3.01-.19,3.34v.02c-.13.72-.33,1.41-.57,2.08-1.26,1.5-2.98,2.52-4.9,2.85-.21-.23-.5-.37-.82-.37h-1.1c-.63,0-1.13.51-1.13,1.13s.51,1.13,1.13,1.13h1.1c.52,0,.94-.35,1.07-.82,1.2-.21,2.33-.68,3.34-1.33-.09.14-.17.28-.27.42-.14.2-.28.37-.42.54,0,0,0,0,0,0-.03.03-.06.07-.09.1-.9,1.02-2.36,2.24-4.24,2.24-1.48,0-2.98-.79-4.24-2.24-.03-.04-.06-.07-.09-.11,0,0,0,0-.01-.01s0-.01,0-.02c-.15-.17-.29-.34-.41-.52-.57-.77-1.05-1.65-1.43-2.61-.31-.76-.54-1.58-.69-2.42Zm5.8,15.41l-5.99,1.25,2.12-5.54,3.87,4.28Zm-3.39-5.39s.02-.07.03-.11c.03-.1.04-.21.06-.31.04-.2.08-.4.1-.61.01-.14.02-.28.03-.42.01-.19.02-.38.03-.57,0-.15,0-.29,0-.44,0-.1,0-.2,0-.3,1.29,1.15,2.75,1.75,4.21,1.75s2.91-.6,4.2-1.75c0,.2,0,.41.01.61,0,.04,0,.08,0,.12,0,.18.02.36.03.54,0,.06,0,.11.02.17.02.16.04.31.06.46.01.08.03.16.04.24.03.13.05.25.09.38.01.05.02.1.04.15l-4.52,5.01-4.45-4.92Zm9.38,1.11l2.12,5.54-5.99-1.25,3.87-4.28Zm-4.85-23.36c4.14,0,7.57,3.06,8.21,7.21-.35.05-.64.25-.82.53l-2.98-1.92c-.22-.14-.5-.11-.69.07l-.85.85-1.1-1.56c-.14-.2-.4-.28-.63-.2l-8.5,3.02c-.12-.4-.45-.69-.87-.77.64-4.16,4.07-7.23,8.22-7.23Zm-10.24,14.22c0-.54.08-1.04.21-1.5.1.53.54.93,1.09.93.02,0,.08,0,.1,0l.88-.08c.07,0,.12-.04.19-.06.14.53.3,1.04.5,1.54.41,1.05.94,2.01,1.56,2.85.1.14.22.29.33.42,0,.28,0,.57,0,.82.01.97,0,2.03-.23,2.83-.04.05-.08.09-.11.15l-.19.49c-.06.08-.11.16-.18.24-.03.04-.07.07-.11.1-.11.1-.22.2-.36.29-.03.02-.05.04-.08.05-2.3-2.26-3.62-5.57-3.62-9.09Zm-7.11,21.02c.09-3.08,1.4-5.8,3.61-7.48,1.45-1.1,3.25-1.76,4.82-2.29l.28-.09c.61-.2,1.32-.45,1.98-.78l-1.86,4.85c-.07.19-.04.4.09.55.1.12.26.19.42.19.04,0,.08,0,.11-.01l7.81-1.63.28.06c-.08-.01-.15-.02-.23-.02-.79,0-1.44.65-1.44,1.44s.65,1.44,1.44,1.44,1.44-.65,1.44-1.44c0-.67-.46-1.23-1.09-1.39l7.42,1.55s.07.01.11.01c.16,0,.31-.07.42-.19.13-.15.17-.37.09-.55l-1.86-4.85c.67.36,1.39.59,2.1.82l.26.08c1.58.51,3.4,1.19,4.9,2.39,2.12,1.69,3.38,4.37,3.47,7.37H7.57Zm17.66-5.23c0,.19-.15.34-.34.34s-.34-.15-.34-.34.15-.34.34-.34.34.15.34.34Z"/>
  </g>
</svg>