<?xml version="1.0" encoding="UTF-8"?>
<svg id="Capa_1" data-name="Capa 1" xmlns="http://www.w3.org/2000/svg" viewBox="0 0 47.52 47.59">
  <defs>
    <style>
      .cls-1 {
        fill: #fff;
      }
    </style>
  </defs>
  <path class="cls-1" d="m45.34,23.72c-.03-11.77-9.62-21.54-21.66-21.49-11.92.05-21.31,9.65-21.49,21.14-.2,12.5,9.77,21.72,20.99,21.99,12.47.3,22.21-9.72,22.16-21.64Zm2.17.07c.05,13.22-10.62,23.77-23.76,23.79C10.89,47.59-.48,37.06.02,22.77.44,10.67,10.39-.05,23.9,0c12.97.05,23.69,10.62,23.61,23.79Z"/>
  <path class="cls-1" d="m18.28,17.42v.05c1.7,2.45,3.4,4.87,5.12,7.32.85,1.22,1.7,2.42,2.55,3.65.22.32.45.62.67.95.17.25.37.72.65.9.22.15.72.05.97.05.2,0,.82.1.95-.02-1.7-2.45-3.42-4.87-5.12-7.32-.85-1.22-1.72-2.47-2.57-3.7-.22-.32-.45-.62-.67-.95-.17-.25-.37-.72-.62-.87-.22-.15-.72-.05-.97-.05-.17,0-.85-.1-.95.02v-.02Zm-1.77-1c.12-.1.45,0,.6,0h2.9c.2,0,.47-.05.67,0,.35.1.6.67.77.95.52.77,1.05,1.55,1.57,2.3.27.4.55.77.8,1.17.12.17.25.37.37.55.05.07.22.42.32.45.97-1.1,1.92-2.22,2.87-3.32.45-.52.9-1.05,1.35-1.57.2-.22.32-.5.62-.55.35-.05.75,0,1.1,0-.05.2-.3.4-.42.57-.17.22-.37.45-.55.65-.4.47-.82.95-1.22,1.42-.8.95-1.62,1.87-2.42,2.8-.2.22-.42.45-.6.7-.15.2-.02.3.1.47.35.52.7,1.02,1.05,1.55.72,1.05,1.45,2.1,2.17,3.15.8,1.15,1.57,2.32,2.37,3.47-.07.1-.47.05-.6.05h-3c-.17,0-.52.07-.7,0-.17-.07-.3-.32-.4-.47-.15-.2-.27-.4-.42-.6-.52-.77-1.05-1.55-1.57-2.3-.52-.77-1.02-1.6-1.6-2.32-1,1.15-2,2.3-2.97,3.47-.47.57-.97,1.12-1.45,1.7-.2.22-.37.55-.7.57h-1.1c.25-.45.7-.85,1.05-1.25.4-.47.8-.95,1.2-1.4.77-.9,1.55-1.8,2.32-2.7.17-.22.37-.42.55-.65.12-.15.47-.42.45-.6,0-.2-.37-.57-.5-.75-.17-.25-.35-.5-.52-.75-.67-.97-1.35-1.97-2.02-2.95-.77-1.15-1.6-2.3-2.37-3.45-.05-.1-.15-.17-.17-.3l.1-.07Z"/>
</svg>