<?xml version="1.0" encoding="UTF-8"?>
<svg id="Capa_1" data-name="Capa 1" xmlns="http://www.w3.org/2000/svg" viewBox="0 0 47.52 47.59">
  <defs>
    <style>
      .cls-1 {
        fill: #fff;
      }
    </style>
  </defs>
  <path class="cls-1" d="m30.72,43.57c-5,0-10.92-3.61-18.63-11.35C7.41,27.52-3.53,16.54,4.66,7.97c.57-.61,1.3-1.22,2.18-1.83l-.03-.05,1.73-1.03c1.7-1.01,3.7-1.29,5.62-.8,1.92.49,3.53,1.7,4.54,3.41l1.68,2.85c1.47,2.48,1.01,4.8-1.32,6.7l-1.55,1.26c1.07,1.32,2.41,2.78,3.99,4.37,2.08,2.09,4.26,3.98,5.8,5.22l1.15-1.3c1.93-2.3,4.33-2.89,6.57-1.6l3.26,1.85c2.42,1.4,4.65,4.2,1.53,9.61l-1.95,2.96c-1.45,1.82-3.04,3.54-5.87,3.91-.42.05-.85.08-1.28.08ZM9.26,7.38l-.24.15c-1.1.69-2.02,1.41-2.64,2.07-6.6,6.91,3.2,16.74,7.39,20.94,7.7,7.73,13.49,11.16,17.93,10.59,1.79-.23,2.84-1.17,4.26-2.95l1.85-2.82c.85-1.47,1.26-2.76,1.18-3.77-.05-.66-.3-1.63-1.88-2.55l-3.26-1.85c-.78-.45-1.99-.82-3.6,1.1l-2.64,2.98-.87-.66c-1.57-1.19-4.32-3.51-6.91-6.11-2.03-2.03-3.68-3.89-4.91-5.51l-.69-.91,3.34-2.71c1.65-1.35,1.52-2.4.78-3.66l-1.68-2.85c-.69-1.16-1.78-1.99-3.09-2.32-1.31-.34-2.67-.14-3.83.54l-.49.29Z"/>
  <path class="cls-1" d="m26.64,22.01v-11.97c0-3.32,2.43-6.03,5.43-6.03h8.31c2.99,0,5.43,2.7,5.43,6.03v3c0,2.06-.94,4.53-5.43,4.53h-8.71l-5.03,4.44Zm5.43-15.63c-1.69,0-3.06,1.64-3.06,3.66v6.72l1.77-1.56h9.6c2.82,0,3.06-1.07,3.06-2.16v-3c0-2.02-1.37-3.66-3.06-3.66h-8.31Z"/>
  <circle class="cls-1" cx="32.43" cy="10.73" r="1.19"/>
  <circle class="cls-1" cx="40.75" cy="10.73" r="1.19"/>
  <circle class="cls-1" cx="36.59" cy="10.73" r="1.19"/>
</svg>