<?xml version="1.0" encoding="utf-8"?>
<!-- Generator: Adobe Illustrator 27.1.0, SVG Export Plug-In . SVG Version: 6.00 Build 0)  -->
<svg version="1.1" id="Capa_1" xmlns="http://www.w3.org/2000/svg" xmlns:xlink="http://www.w3.org/1999/xlink" x="0px" y="0px"
	 viewBox="0 0 448.3 356.5" style="enable-background:new 0 0 448.3 356.5;" xml:space="preserve">
<style type="text/css">
	.st0{fill:#D85B35;}
</style>
<g>
	<path class="st0" d="M398.6,293.8H142.1l-40.8,54.7l-34.1-54.7h-17c-22.3,0-40.3-17.9-40.3-40.1V49.4C9.9,27.2,28,9.3,50.3,9.3
		h348.4c22.3,0,40.3,17.9,40.3,40.1v204.4C439,275.9,420.9,293.8,398.6,293.8z M427,244.9V56.5c0-20.4-17.1-36.9-38.2-36.9h-330
		c-21.1,0-38.2,16.5-38.2,36.9v188.4c0,20.4,17.1,36.9,38.2,36.9h16.1l27,45.3l34.8-45.3h252.2C409.9,281.9,427,265.3,427,244.9z"/>
	<path class="st0" d="M133.3,47.1c-53.4,0-96.6,43.3-96.6,96.6s43.3,96.6,96.6,96.6s96.6-43.3,96.6-96.6S186.7,47.1,133.3,47.1z
		 M156.3,220.4h-44.1v-41.2h44.1V220.4z M147.8,165.6h-27.4l-9.1-98.5h45.9L147.8,165.6z"/>
	<path class="st0" d="M400.7,108.4H251c-2.8,0-5-2.2-5-5s2.2-5,5-5h149.7c2.8,0,5,2.2,5,5S403.4,108.4,400.7,108.4z"/>
	<path class="st0" d="M358.3,133.5H251c-2.8,0-5-2.2-5-5s2.2-5,5-5h107.4c2.8,0,5,2.2,5,5S361.1,133.5,358.3,133.5z"/>
	<path class="st0" d="M358.3,162.9H251c-2.8,0-5-2.2-5-5s2.2-5,5-5h107.4c2.8,0,5,2.2,5,5S361.1,162.9,358.3,162.9z"/>
	<path class="st0" d="M400.7,187.4H251c-2.8,0-5-2.2-5-5s2.2-5,5-5h149.7c2.8,0,5,2.2,5,5S403.4,187.4,400.7,187.4z"/>
</g>
</svg>
