<?xml version="1.0" encoding="UTF-8"?>
<svg id="Capa_1" data-name="Capa 1" xmlns="http://www.w3.org/2000/svg" viewBox="0 0 82.96 82.4">
  <defs>
    <style>
      .cls-1 {
        fill: #d85b35;
      }
    </style>
  </defs>
  <g>
    <path class="cls-1" d="m30.92,54.01l2.43,12.43c.08.41.42.71.84.72.41.04.78-.24.9-.64l4.84-16.52,5.03,1.81v-1.9l-5.32-1.92c-.23-.08-.49-.07-.71.05-.22.11-.39.31-.46.54l-4.07,13.9-1.67-8.53,2.15-4.75c.12-.27.1-.6-.07-.85-.16-.26-.45-.41-.75-.41h-7.5c-.31,0-.59.15-.76.41-.16.25-.19.58-.06.85l2.14,4.75-1.67,8.53-4.07-13.9c-.07-.23-.24-.43-.46-.54-.22-.12-.47-.13-.71-.05l-12.55,4.52c-.23.09-.43.27-.52.51-.91,2.2-3.44,18.27-3.73,20.09-.04.26.03.53.2.72.17.2.42.32.69.32h39.9v-1.8H6.11c1.05-6.65,2.65-15.98,3.33-18.3l11.24-4.05,4.84,16.52c.12.4.5.68.91.64.41-.01.76-.31.83-.72l2.44-12.43c.03-.18,0-.37-.06-.54l-1.69-3.74h4.72l-1.69,3.74c-.08.17-.1.36-.06.54Z"/>
    <path class="cls-1" d="m30.31,44.94c-4.4,0-7.74-2.79-9.69-8.09-1.38-.27-2.47-1.67-3.25-4.18-.57-1.85-.57-3.25,0-4.29.31-.57.77-1,1.39-1.31-.07-1.31-.22-4.49.03-6.58.13-1.08.55-1.89,1.27-2.4.48-.34.99-.47,1.42-.51.2-.78.68-1.91,1.83-2.8,1.88-1.46,4.79-1.75,8.65-.86,2.01.47,5.58,1.29,7.3,4,.79.22,1.68.81,2.22,2.29.75,2.07.54,5.47.41,6.87.6.3,1.06.73,1.37,1.29.57,1.04.57,2.45,0,4.29-.91,2.96-2.16,3.95-3.24,4.17-1.95,5.3-5.29,8.09-9.69,8.09Zm-9.04-9.84c.38,0,.73.24.85.61,1.67,4.93,4.42,7.44,8.19,7.44s6.52-2.5,8.19-7.44c.13-.39.5-.65.92-.61.02,0,.04,0,.05,0,.72,0,1.49-1.1,2.06-2.96.41-1.32.45-2.33.14-2.91-.11-.21-.34-.51-1-.7-.39-.11-.65-.46-.65-.86,0-.03,0-.09,0-.11,0-.03,0-.06.01-.09.04-.32.52-4.52-.25-6.64-.36-1-.86-1.17-1.21-1.21-.29-.04-.54-.21-.68-.47-1.23-2.29-4.52-3.05-6.28-3.46-3.3-.76-5.77-.59-7.18.49-1.11.85-1.28,2.03-1.3,2.3,0,.01,0,.02,0,.03,0,.57-.6,1.01-1.12.87-.11-.01-.58-.07-.92.18-.27.2-.45.58-.51,1.13-.27,2.28-.03,6.11,0,6.75,0,.03,0,.06.01.09,0,.02,0,.11,0,.13,0,.4-.27.75-.65.86-.66.19-.89.49-1,.7-.32.58-.27,1.59.14,2.91.6,1.93,1.36,3,2.11,2.96.02,0,.05,0,.07,0Z"/>
  </g>
  <path class="cls-1" d="m80.56,50.21h-11.02s0-1.32,0-1.57v-1.92c0-.25-.2-.45-.45-.45h-10.27c-.25,0-.45.2-.45.45v1.92c0,.25,0,1.54,0,1.57h-11.34c-.25,0-.45.2-.45.45v23.05c0,.25.2.45.45.45h33.53c.25,0,.45-.2.45-.45v-23.05c0-.25-.2-.45-.45-.45Zm-5.6,8.99h-1.9c-.25,0-.45.2-.45.45v1.38l-8.75,1.43-8.83-1.45v-1.37c0-.25-.2-.45-.45-.45h-1.9c-.25,0-.45.2-.45.45v.91l-3.74-.61v-7.99s30.77,0,30.77,0v7.97s-3.87.64-3.87.64v-.92c0-.25-.2-.45-.45-.45Zm-14.66-9.12v-2.01h7.43v2.01s.01.09.02.13h-7.47s.02-.08.02-.13Zm-11.77,22.32l-.02-10.57,3.74.61v3.12c0,.25.2.45.45.45h1.9c.25,0,.45-.2.45-.45v-2.67l8.72,1.43s.05,0,.07,0,.05,0,.07,0l8.72-1.43v2.67c0,.25.2.45.45.45h1.9c.25,0,.45-.2.45-.45v-3.12l3.89-.64.02,10.6h-30.78Z"/>
</svg>