<?xml version="1.0" encoding="UTF-8"?>
<svg id="Capa_1" xmlns="http://www.w3.org/2000/svg" viewBox="0 0 82.96 82.4">
  <defs>
    <style>
      .cls-1 {
        fill: #d85b35;
      }
    </style>
  </defs>
  <path class="cls-1" d="m61.29,68.81H9.08c-2.69,0-5.1-1.4-6.45-3.73-1.2-2.09-1.33-4.54-.34-6.74l7.02-15.72h63.68l-4.82,10.79H16.65l-.7,1.59c-.16.36-.12.75.09,1.07.21.33.56.51.95.51h49.77l-5.46,12.23ZM10.49,44.44l-6.54,14.64c-.74,1.66-.65,3.51.26,5.09,1.02,1.76,2.84,2.82,4.87,2.82h51.03l3.83-8.58H16.98c-1,0-1.93-.5-2.48-1.34s-.63-1.89-.23-2.81l1.18-2.68h51.53l3.19-7.14H10.49Z"/>
  <path class="cls-1" d="m73.73,41.13H10.02l.91-1.89c3.02-6.29,9.48-10.36,16.46-10.36h52.22l-5.88,12.25Zm-60.78-1.83h59.64l4.13-8.59H27.39c-6.01,0-11.59,3.35-14.45,8.59Z"/>
</svg>