<?xml version="1.0" encoding="UTF-8"?>
<svg id="Capa_1" data-name="Capa 1" xmlns="http://www.w3.org/2000/svg" viewBox="0 0 82.96 82.4">
  <defs>
    <style>
      .cls-1 {
        fill: #d85b35;
      }
    </style>
  </defs>
  <path class="cls-1" d="m17.17,69.38h50.3c3.07,0,5.58-2.31,5.68-5.18h0v-25.14c0-2.19-1.53-3.98-3.42-3.98h-8.92v-8.4l-13.31-11.42-34.66.04v48.65c0,3.05,1.9,5.45,4.32,5.45Zm43.65-32.09h5.24c-.21.5-.32,1.05-.32,1.62v14.96h-4.92v-16.58Zm0,17.99h6.61v-16.22c0-.91.57-1.7,1.22-1.7h1.73c.65,0,1.22.8,1.22,1.7v24.96c0,1.7-1.64,3.08-3.66,3.08h-3.46c-2.02,0-3.66-1.38-3.66-3.08v-8.74Zm-11.43-35.74l6.78,5.74-7.11.92.33-6.65Zm-34.73-2.49l32.94-.03-.59,11.18,11.98-1.55v37.83c0,1.17.39,2.26,1.07,3.15H16.75c-1.13,0-2.08-1.48-2.08-3.24V17.05Z"/>
  <rect class="cls-1" x="19.32" y="57.53" width="34.85" height="2.51"/>
  <rect class="cls-1" x="19.32" y="51.37" width="34.85" height="2.51"/>
  <rect class="cls-1" x="19.32" y="45.2" width="34.85" height="2.51"/>
  <rect class="cls-1" x="19.32" y="39.04" width="34.85" height="2.51"/>
  <rect class="cls-1" x="19.32" y="32.87" width="34.85" height="2.51"/>
</svg>