<?xml version="1.0" encoding="UTF-8"?>
<svg id="Capa_1" data-name="Capa 1" xmlns="http://www.w3.org/2000/svg" viewBox="0 0 47.52 47.59">
  <defs>
    <style>
      .cls-1 {
        fill: #fff;
      }
    </style>
  </defs>
  <path class="cls-1" d="m45.34,23.72c-.03-11.77-9.62-21.54-21.66-21.49-11.92.05-21.31,9.65-21.49,21.14-.2,12.5,9.77,21.72,20.99,21.99,12.47.3,22.21-9.72,22.16-21.64Zm2.17.07c.05,13.22-10.62,23.77-23.76,23.79C10.89,47.59-.48,37.06.02,22.77.44,10.67,10.39-.05,23.9,0c12.97.05,23.69,10.62,23.61,23.79Z"/>
  <g>
    <path class="cls-1" d="m23.8,30.17h2.77c.72-.02,1.5-.12,2.15-.5,1.42-.82,1.4-2.65,1.42-4.1,0-1.62.05-3.25-.05-4.87-.07-1.4-.6-2.67-2.02-3.1-1.52-.45-3.27-.25-4.85-.25-.87,0-1.72,0-2.6.02-.7.02-1.35.15-1.97.5-1.3.77-1.32,2.47-1.35,3.82v2.25c0,.77-.05,1.55,0,2.35.05,1.45.3,2.92,1.77,3.55.7.3,1.5.3,2.25.32h2.47Zm-7.9-6.22c0-1.62-.17-3.37.3-4.95.45-1.47,1.65-2.57,3.17-2.87.92-.2,1.87-.15,2.8-.15h2.87c1.62,0,3.4-.12,4.77.9,1.37,1,1.67,2.62,1.72,4.22.07,1.82.07,3.67,0,5.52-.05,1.6-.5,3.27-1.9,4.2-1.47.97-3.35.82-5.05.82h-3.2c-.97,0-1.95-.07-2.85-.45-1.7-.7-2.45-2.25-2.6-4-.1-1.15-.02-2.3-.05-3.25Z"/>
    <path class="cls-1" d="m23.78,21.22c-1.52-.05-2.57,1.3-2.6,2.52,0,1.4,1.22,2.62,2.6,2.65,1.2,0,2.6-1.1,2.6-2.57s-1.22-2.65-2.6-2.6Zm4.02,2.6c0,2.3-1.87,4.02-4.05,4.02s-4.02-1.8-4.02-4.05,1.72-4,4.02-4.02c2.3,0,4.07,1.8,4.05,4.05Z"/>
    <path class="cls-1" d="m27,19.62c0-.85,1.1-1.27,1.67-.62.55.62.07,1.57-.75,1.57-.5,0-.92-.42-.92-.95Z"/>
  </g>
</svg>