<svg width="63" height="55" viewBox="0 0 63 55" fill="none" xmlns="http://www.w3.org/2000/svg">
<path d="M39.8312 25.0693C38.5848 25.0693 37.571 26.0789 37.571 27.3294C37.571 28.58 38.5806 29.5896 39.8312 29.5896C41.0817 29.5896 42.0913 28.58 42.0913 27.3294C42.0913 26.0789 41.0817 25.0693 39.8312 25.0693Z" fill="white"/>
<path d="M25.2568 27.3294C25.2568 26.0831 24.2472 25.0693 22.9967 25.0693C21.7461 25.0693 20.7366 26.0789 20.7366 27.3294C20.7366 28.58 21.7461 29.5896 22.9967 29.5896C24.2472 29.5896 25.2568 28.58 25.2568 27.3294Z" fill="white"/>
<path d="M59.4658 20.5947C57.8413 19.1655 56.8608 18.1975 56.9896 16.8431C57.135 15.3266 57.2763 13.9473 57.4051 12.6884C58.1654 5.23507 58.4811 2.15235 56.5742 0.719006C54.9746 -0.481677 52.6855 0.303545 49.8562 1.45022C45.7763 3.10791 43.9732 5.60898 43.1755 7.49518C34.1725 0.664996 23.7777 5.09797 19.756 7.29576C18.9832 5.56328 17.176 3.15776 12.9674 1.44606C10.1381 0.29939 7.84888 -0.485831 6.24935 0.714852C4.34239 2.14819 4.65814 5.23092 5.41843 12.6843C5.54722 13.9431 5.68848 15.3225 5.83389 16.8389C5.96269 18.1933 4.98635 19.1613 3.35774 20.5905C1.77899 21.9782 -0.181985 23.7023 0.233476 26.353C1.13918 32.1486 5.40181 42.9216 13.4285 48.8377C19.0622 52.9923 25.7594 54.6292 31.8667 54.6292C36.0379 54.6292 39.9308 53.8648 43.0177 52.6143C45.714 51.5216 49.2371 48.9499 49.3867 48.8377C57.4134 42.9174 61.676 32.1486 62.5817 26.353C62.9972 23.7023 61.0321 21.9782 59.4575 20.5905L59.4658 20.5947ZM59.7151 25.9084C58.9132 31.0269 54.9331 41.1434 47.6708 46.5028C47.6376 46.5278 44.2931 48.9707 41.9333 49.9262C36.1916 52.2528 24.3219 53.2582 15.161 46.5028C7.89458 41.1434 3.91446 31.0269 3.11262 25.9084C2.95475 24.8864 3.83552 24.0555 5.28548 22.78C6.94733 21.3176 9.01633 19.502 8.73381 16.5689C8.5884 15.0483 8.44714 13.6606 8.31835 12.3976C7.86134 7.91895 7.42926 3.6854 7.98598 3.05805C8.03168 3.03728 8.10647 3.02066 8.21864 3.02066C8.63826 3.02066 9.61459 3.22839 11.8789 4.14656C17.1552 6.29034 17.4253 9.44785 17.4336 9.55587C17.4502 10.0918 17.7576 10.5737 18.2354 10.8147C18.7132 11.0557 19.2865 11.0141 19.7228 10.7067C20.2629 10.3286 33.0425 1.58732 42.9969 11.1637C43.4082 11.5625 44.0189 11.6706 44.5507 11.4545C45.0825 11.2385 45.4398 10.7233 45.4606 10.15C45.4647 9.9921 45.6642 6.2945 50.9571 4.14656C53.8363 2.97912 54.634 2.9625 54.8251 3.03728C55.4109 3.68124 54.9788 7.91479 54.5176 12.3935C54.3888 13.6565 54.2476 15.0441 54.1022 16.5647C53.8197 19.4979 55.8887 21.3176 57.5505 22.7758C59.0005 24.0513 59.8812 24.8822 59.7234 25.9043L59.7151 25.9084Z" fill="white"/>
<path d="M19.7561 38.3345L13.0423 39.5019C12.3651 39.6182 11.9081 40.2664 12.0286 40.9436C12.1324 41.5501 12.6601 41.9781 13.2542 41.9781C13.3248 41.9781 13.3954 41.9739 13.4702 41.9614L20.1841 40.794C20.8613 40.6777 21.3183 40.0295 21.1978 39.3523C21.0815 38.6751 20.4375 38.2181 19.7561 38.3386V38.3345Z" fill="white"/>
<path d="M20.0345 34.9737L13.2251 34.6704C12.5355 34.6372 11.9538 35.1731 11.9247 35.8586C11.8956 36.5441 12.4274 37.1299 13.1129 37.159L19.9223 37.4623C19.9223 37.4623 19.9597 37.4623 19.9805 37.4623C20.6453 37.4623 21.1937 36.9388 21.2227 36.2699C21.2518 35.5803 20.72 34.9986 20.0345 34.9695V34.9737Z" fill="white"/>
<path d="M49.7897 39.5021L43.0758 38.3346C42.3986 38.2183 41.7505 38.6711 41.6342 39.3483C41.5179 40.0255 41.9707 40.6737 42.6479 40.79L49.3618 41.9574C49.4324 41.9699 49.5072 41.9741 49.5778 41.9741C50.1719 41.9741 50.6996 41.5461 50.8034 40.9396C50.9197 40.2624 50.4669 39.6142 49.7897 39.4979V39.5021Z" fill="white"/>
<path d="M49.6029 34.6709L42.7935 34.9742C42.1038 35.0033 41.572 35.5849 41.6052 36.2746C41.6343 36.9435 42.1869 37.467 42.8475 37.467C42.8641 37.467 42.8849 37.467 42.9056 37.467L49.715 37.1637C50.4047 37.1346 50.9365 36.5529 50.9033 35.8633C50.8742 35.1736 50.2842 34.6418 49.6029 34.6751V34.6709Z" fill="white"/>
<path d="M32.2366 39.9554C32.5565 39.7975 32.8432 39.5482 33.0384 39.1951L33.9151 37.6122C34.6047 36.3741 33.7073 34.8535 32.2906 34.8535H30.5332C29.1165 34.8535 28.2233 36.3741 28.9088 37.6122L29.7854 39.1951C29.9806 39.5482 30.2673 39.8017 30.5872 39.9554C30.5706 39.9678 30.9944 40.1008 31.4098 40.1008C31.8253 40.1008 32.2408 39.9637 32.2325 39.9554H32.2366Z" fill="white"/>
<path d="M40.1969 42.4395C40.1429 41.8288 39.6028 41.3801 38.992 41.4341C38.3813 41.4881 37.9285 42.0282 37.9866 42.6389C38.0656 43.5363 36.9147 44.4836 35.5229 44.6664C34.7585 44.7702 32.9346 44.7453 32.5108 42.3481C32.5108 42.3398 32.5067 42.3315 32.5025 42.3232C32.4942 42.2858 32.4818 42.2484 32.4693 42.211C32.4568 42.1778 32.4485 42.1445 32.4361 42.1113C32.4236 42.0781 32.407 42.0531 32.3904 42.0199C32.3737 41.9867 32.3571 41.9534 32.3322 41.9202C32.3114 41.8911 32.2906 41.8662 32.2699 41.8412C32.2449 41.8122 32.2242 41.7831 32.1992 41.7582C32.1743 41.7332 32.1411 41.7083 32.112 41.6834C32.0871 41.6626 32.0621 41.6418 32.0372 41.6252C32.004 41.6044 31.9666 41.5837 31.9334 41.567C31.9043 41.5504 31.8793 41.538 31.8503 41.5255C31.817 41.5089 31.7796 41.5006 31.7422 41.4881C31.709 41.4756 31.6758 41.4673 31.6425 41.459C31.6301 41.459 31.6218 41.4507 31.6134 41.4507C31.5844 41.4466 31.5594 41.4507 31.5304 41.4466C31.493 41.4466 31.4556 41.4382 31.4182 41.4382C31.3808 41.4382 31.3434 41.4424 31.306 41.4466C31.2769 41.4466 31.252 41.4466 31.2229 41.4507C31.2105 41.4507 31.2021 41.459 31.1938 41.459C31.1606 41.4673 31.1315 41.4756 31.0983 41.4839C31.0567 41.4964 31.0193 41.5089 30.9819 41.5255C30.957 41.5338 30.9362 41.5504 30.9113 41.5629C30.8698 41.5837 30.8282 41.6044 30.7908 41.6294C30.7701 41.6418 30.7493 41.6626 30.7327 41.6751C30.6994 41.7041 30.662 41.7291 30.6288 41.7623C30.608 41.7831 30.5873 41.808 30.5665 41.8329C30.5416 41.862 30.5166 41.8911 30.4959 41.9243C30.4751 41.9534 30.4626 41.9867 30.446 42.0157C30.4294 42.049 30.4086 42.0781 30.3961 42.1113C30.3837 42.1404 30.3754 42.1736 30.3629 42.2069C30.3504 42.2442 30.338 42.2816 30.3297 42.3232C30.3297 42.3315 30.3255 42.3398 30.3214 42.3481C29.8976 44.7453 28.0737 44.7702 27.3093 44.6664C25.9175 44.4836 24.7666 43.5322 24.8456 42.6389C24.8996 42.0282 24.4509 41.4881 23.8402 41.4341C23.2294 41.3801 22.6893 41.8288 22.6353 42.4395C22.4234 44.8201 24.696 46.5609 27.0184 46.8683C27.2553 46.9016 27.4962 46.914 27.7372 46.914C29.0999 46.914 30.4709 46.3947 31.4182 45.2356C32.3613 46.3947 33.7365 46.914 35.0992 46.914C35.3401 46.914 35.5811 46.8974 35.8179 46.8683C38.1403 46.5609 40.4129 44.8201 40.201 42.4395H40.1969Z" fill="white"/>
</svg>
