<svg width="80" height="64" viewBox="0 0 80 64" fill="none" xmlns="http://www.w3.org/2000/svg">
<path d="M38.2773 40.7402H40.461C42.2218 40.7402 43.3345 42.6354 42.4783 44.1765L41.3865 46.1446C40.506 47.7309 38.2287 47.7309 37.3483 46.1446L36.2565 44.1765C35.4003 42.6354 36.513 40.7402 38.2738 40.7402H38.2773Z" fill="white"/>
<path d="M47.4317 35.0235C48.5956 35.0235 49.5391 34.0787 49.5391 32.9131C49.5391 31.7476 48.5956 30.8027 47.4317 30.8027C46.2678 30.8027 45.3242 31.7476 45.3242 32.9131C45.3242 34.0787 46.2678 35.0235 47.4317 35.0235Z" fill="white"/>
<path d="M31.5286 34.9923C32.6925 34.9923 33.6361 34.0474 33.6361 32.8819C33.6361 31.7163 32.6925 30.7715 31.5286 30.7715C30.3647 30.7715 29.4211 31.7163 29.4211 32.8819C29.4211 34.0474 30.3647 34.9923 31.5286 34.9923Z" fill="white"/>
<path d="M64.1213 16.02C59.8856 7.8214 55.2929 6.00605 55.0988 5.93316C55.0537 5.91581 55.0087 5.90192 54.9601 5.89151C53.7886 5.59994 51.5009 5.61383 50.1837 7.32157C49.6083 7.1029 49.0225 6.90505 48.4333 6.72803C48.4333 6.72803 48.4263 6.72802 48.4229 6.72455C46.5303 5.91233 43.2929 5.36738 39.6014 5.41945C35.9098 5.36738 32.6724 5.91233 30.7799 6.72455C30.7799 6.72455 30.7729 6.72455 30.7729 6.72803C30.1837 6.90505 29.5979 7.1029 29.0225 7.32157C27.7053 5.61383 25.4176 5.59994 24.246 5.89151C24.201 5.90192 24.1525 5.91581 24.1074 5.93316C23.9133 6.00605 19.3206 7.8214 15.0849 16.02C10.714 24.4823 6.58571 32.4761 10.3327 37.1654C13.4072 41.0148 16.201 49.7514 16.2287 49.8381C16.3916 50.3484 16.863 50.6851 17.383 50.6851C17.4315 50.6851 17.48 50.6851 17.5285 50.6781C18.1074 50.6087 18.5545 50.1401 18.5961 49.557C18.6031 49.4425 19.1195 42.4622 20.7313 35.5827C21.4835 36.9121 22.7486 40.1054 24.0589 47.6514C24.1629 48.2484 24.4783 50.0707 24.9393 51.4834C26.1975 55.3536 28.8076 57.4015 32.3154 57.4015C32.5095 57.4015 32.714 57.3876 32.915 57.3772C35.4558 58.8524 37.7261 59.3557 39.636 59.3557C42.7833 59.3557 44.9532 57.9951 45.7747 57.3807C45.9341 57.3876 46.097 57.4015 46.253 57.4015C49.7608 57.4015 52.3709 55.3536 53.6291 51.4834C54.0901 50.0707 54.4055 48.2484 54.5095 47.6514C56.156 38.1686 57.7331 35.5549 58.305 34.885C60.0485 41.9832 60.5997 49.4355 60.6066 49.557C60.6482 50.1401 61.0953 50.6087 61.6742 50.6781C61.7227 50.6851 61.7712 50.6851 61.8198 50.6851C62.3432 50.6851 62.8146 50.3484 62.974 49.8381C63.0017 49.7514 65.7955 41.0148 68.87 37.1654C72.617 32.4761 68.4887 24.4823 64.1179 16.02H64.1213ZM36.6239 56.4053C37.8821 55.5931 38.7279 54.0693 39.2963 52.4692C39.8856 54.1492 40.7833 55.7562 42.149 56.5268C40.8007 56.9538 38.9185 57.1516 36.6239 56.4019V56.4053ZM66.9775 35.6486C65.234 37.8319 63.6291 41.2786 62.4749 44.1387C61.6326 37.759 59.6811 27.2904 55.5841 22.5733C55.1438 22.0665 54.3778 22.0144 53.8717 22.4518C53.3657 22.8926 53.3137 23.6597 53.7504 24.1665C55.3865 26.0512 56.6586 29.0814 57.636 32.3997C55.5563 33.1252 53.7054 38.1026 52.1178 47.2349C51.8579 48.7274 51.591 49.9041 51.3206 50.7337C50.1074 54.472 47.5043 55.7458 43.5875 54.524C41.8648 53.986 40.8215 49.7028 40.6274 46.8322C40.5823 46.1623 40.0069 45.659 39.3379 45.7007C39.3275 45.7007 39.3171 45.7042 39.3033 45.7076C39.2929 45.7076 39.2859 45.7042 39.2755 45.7042C38.6066 45.6521 38.0277 46.1589 37.9792 46.8288C37.7712 49.7028 36.7001 53.9895 34.974 54.531C31.0572 55.7528 28.4575 54.4789 27.2409 50.7406C26.9705 49.911 26.7036 48.7344 26.4436 47.2418C24.9982 38.9252 23.3275 34.0519 21.4731 32.7017C22.461 29.2654 23.7608 26.1137 25.4454 24.1734C25.8856 23.6666 25.8301 22.8995 25.324 22.4587C24.818 22.0179 24.0519 22.0734 23.6117 22.5767C19.5147 27.2938 17.5632 37.7625 16.7209 44.1422C15.5667 41.2821 13.9618 37.8353 12.2183 35.6521C9.45573 32.1949 13.4072 24.5413 17.2304 17.1376C20.7382 10.3483 24.402 8.46354 24.8977 8.23445C25.272 8.16156 26.8006 7.94635 27.324 9.21328C27.3379 9.24452 27.3587 9.27229 27.3726 9.30353C27.3726 9.307 27.3726 9.31394 27.376 9.31741C27.487 9.57079 27.6741 9.76517 27.8994 9.8936C27.9237 9.90748 27.9514 9.9179 27.9757 9.93178C28.0034 9.94566 28.0277 9.95955 28.0589 9.96996C28.1039 9.99079 28.1455 10.0151 28.1906 10.0324C29.0364 10.3344 30 9.87624 31.2686 9.19592C31.3934 9.1265 31.532 9.05361 31.6291 9.00502C34.2807 8.23098 37.0572 7.88735 39.5875 7.84222C42.1213 7.88388 44.9012 8.22751 47.5528 9.00502C47.6499 9.05361 47.7851 9.1265 47.9133 9.19592C49.182 9.87624 50.1456 10.3344 50.9913 10.0324C51.0398 10.0151 51.078 9.99079 51.123 9.96996C51.1542 9.95955 51.1785 9.94219 51.2097 9.92831C51.234 9.91443 51.2582 9.90401 51.2825 9.89013C51.5078 9.76517 51.695 9.57079 51.8059 9.31394C51.8059 9.31047 51.8059 9.30353 51.8093 9.30005C51.8232 9.26882 51.844 9.24105 51.8579 9.20981C52.3778 7.95677 53.8856 8.15462 54.2842 8.23098C54.8215 8.48089 58.4645 10.383 61.9515 17.1342C65.7747 24.5344 69.7262 32.188 66.9636 35.6486H66.9775Z" fill="white"/>
</svg>
